<?xml version="1.0" encoding="UTF-8"?>
<!DOCTYPE svg PUBLIC "-//W3C//DTD SVG 1.1//EN" "http://www.w3.org/Graphics/SVG/1.1/DTD/svg11.dtd">
<svg xmlns="http://www.w3.org/2000/svg" version="1.1" width="521px" height="521px" style="shape-rendering:geometricPrecision; text-rendering:geometricPrecision; image-rendering:optimizeQuality; fill-rule:evenodd; clip-rule:evenodd" xmlns:xlink="http://www.w3.org/1999/xlink">
<g><path style="opacity:0.997" fill="#cad74d" d="M 237.5,-0.5 C 248.5,-0.5 259.5,-0.5 270.5,-0.5C 270.493,17.9849 274.327,35.6516 282,52.5C 294.097,78.707 310.597,101.707 331.5,121.5C 331.5,139.5 331.5,157.5 331.5,175.5C 284.313,140.148 247.48,96.1482 221,43.5C 215.344,30.8648 210.844,17.8648 207.5,4.5C 217.538,2.44931 227.538,0.782644 237.5,-0.5 Z"/></g>
<g><path style="opacity:0.994" fill="#d0d94e" d="M 270.5,-0.5 C 274.5,-0.5 278.5,-0.5 282.5,-0.5C 295.536,1.06284 308.536,3.39617 321.5,6.5C 320.028,17.5818 320.528,28.5818 323,39.5C 327.433,52.3621 332.933,64.6954 339.5,76.5C 336.833,76.5 334.167,76.5 331.5,76.5C 331.5,91.5 331.5,106.5 331.5,121.5C 310.597,101.707 294.097,78.707 282,52.5C 274.327,35.6516 270.493,17.9849 270.5,-0.5 Z"/></g>
<g><path style="opacity:0.997" fill="#c5d54d" d="M 207.5,4.5 C 210.844,17.8648 215.344,30.8648 221,43.5C 247.48,96.1482 284.313,140.148 331.5,175.5C 331.5,182.5 331.5,189.5 331.5,196.5C 271.104,152.946 224.271,97.9463 191,31.5C 188.394,24.5145 185.894,17.5145 183.5,10.5C 191.321,7.8782 199.321,5.8782 207.5,4.5 Z"/></g>
<g><path style="opacity:0.984" fill="#d6db4f" d="M 321.5,6.5 C 384.325,22.4747 434.825,56.4747 473,108.5C 477.693,115.225 481.86,122.225 485.5,129.5C 482.823,131.46 479.823,132.96 476.5,134C 461.92,136.995 447.254,137.662 432.5,136C 425.126,134.263 417.792,132.429 410.5,130.5C 411.336,113.838 406.336,99.3378 395.5,87C 387.943,81.9782 379.61,78.8116 370.5,77.5C 360.188,76.5014 349.855,76.1681 339.5,76.5C 332.933,64.6954 327.433,52.3621 323,39.5C 320.528,28.5818 320.028,17.5818 321.5,6.5 Z"/></g>
<g><path style="opacity:0.997" fill="#c2d34c" d="M 183.5,10.5 C 185.894,17.5145 188.394,24.5145 191,31.5C 224.271,97.9463 271.104,152.946 331.5,196.5C 331.5,203.167 331.5,209.833 331.5,216.5C 273.796,175.423 225.296,125.423 186,66.5C 176.187,51.2072 167.687,35.2072 160.5,18.5C 168.012,15.4403 175.678,12.7737 183.5,10.5 Z"/></g>
<g><path style="opacity:0.997" fill="#bed24c" d="M 160.5,18.5 C 167.687,35.2072 176.187,51.2072 186,66.5C 225.296,125.423 273.796,175.423 331.5,216.5C 331.832,229.517 331.499,242.517 330.5,255.5C 285.833,212.167 241.833,168.167 198.5,123.5C 191.943,119.779 184.943,117.446 177.5,116.5C 155.95,92.6299 135.95,67.6299 117.5,41.5C 131.035,32.5624 145.369,24.8957 160.5,18.5 Z"/></g>
<g><path style="opacity:0.992" fill="#b8cf4b" d="M 117.5,41.5 C 135.95,67.6299 155.95,92.6299 177.5,116.5C 164.608,117.123 153.608,121.79 144.5,130.5C 143.883,130.611 143.383,130.944 143,131.5C 121.609,111.61 101.109,90.943 81.5,69.5C 92.6175,59.0513 104.617,49.7179 117.5,41.5 Z"/></g>
<g><path style="opacity:1" fill="#fefefe" d="M 339.5,76.5 C 349.855,76.1681 360.188,76.5014 370.5,77.5C 379.61,78.8116 387.943,81.9782 395.5,87C 406.336,99.3378 411.336,113.838 410.5,130.5C 410.5,144.833 410.5,159.167 410.5,173.5C 410.5,190.5 410.5,207.5 410.5,224.5C 410.5,238.833 410.5,253.167 410.5,267.5C 410.5,282.167 410.5,296.833 410.5,311.5C 410.5,326.833 410.5,342.167 410.5,357.5C 410.832,369.851 410.499,382.185 409.5,394.5C 401.368,396.427 393.035,397.094 384.5,396.5C 366.833,396.5 349.167,396.5 331.5,396.5C 315.167,396.5 298.833,396.5 282.5,396.5C 267.167,396.5 251.833,396.5 236.5,396.5C 217.5,396.5 198.5,396.5 179.5,396.5C 158.5,396.5 137.5,396.5 116.5,396.5C 109.059,395.799 102.726,392.799 97.5,387.5C 96.3112,386.571 94.9778,386.238 93.5,386.5C 93.3588,383.032 91.6921,380.699 88.5,379.5C 86.8609,374.875 85.1942,370.209 83.5,365.5C 82.5007,351.182 82.1674,336.849 82.5,322.5C 82.5,321.5 82.5,320.5 82.5,319.5C 108.833,319.5 135.167,319.5 161.5,319.5C 177.833,319.5 194.167,319.5 210.5,319.5C 225.833,319.5 241.167,319.5 256.5,319.5C 260.167,319.5 263.833,319.5 267.5,319.5C 267.762,318.022 267.429,316.689 266.5,315.5C 215.097,264.431 164.097,213.097 113.5,161.5C 123.881,151.119 134.215,140.785 144.5,130.5C 153.608,121.79 164.608,117.123 177.5,116.5C 184.943,117.446 191.943,119.779 198.5,123.5C 241.833,168.167 285.833,212.167 330.5,255.5C 331.499,242.517 331.832,229.517 331.5,216.5C 331.5,209.833 331.5,203.167 331.5,196.5C 331.5,189.5 331.5,182.5 331.5,175.5C 331.5,157.5 331.5,139.5 331.5,121.5C 331.5,106.5 331.5,91.5 331.5,76.5C 334.167,76.5 336.833,76.5 339.5,76.5 Z"/></g>
<g><path style="opacity:0.992" fill="#b1cc4a" d="M 81.5,69.5 C 101.109,90.943 121.609,111.61 143,131.5C 143.383,130.944 143.883,130.611 144.5,130.5C 134.215,140.785 123.881,151.119 113.5,161.5C 91.3464,144.257 69.0131,127.257 46.5,110.5C 56.2994,95.3573 67.9661,81.6907 81.5,69.5 Z"/></g>
<g><path style="opacity:0.996" fill="#abca49" d="M 46.5,110.5 C 69.0131,127.257 91.3464,144.257 113.5,161.5C 164.097,213.097 215.097,264.431 266.5,315.5C 267.429,316.689 267.762,318.022 267.5,319.5C 263.833,319.5 260.167,319.5 256.5,319.5C 191.096,256.933 118.763,203.766 39.5,160C 33.8163,157.389 28.1496,154.889 22.5,152.5C 28.5089,137.207 36.5089,123.207 46.5,110.5 Z"/></g>
<g><path style="opacity:0.992" fill="#d0d94e" d="M 485.5,129.5 C 495.802,146.051 503.802,163.718 509.5,182.5C 500.405,185.239 491.072,186.905 481.5,187.5C 468.77,186.483 456.104,184.983 443.5,183C 432.511,179.725 421.511,176.558 410.5,173.5C 410.5,159.167 410.5,144.833 410.5,130.5C 417.792,132.429 425.126,134.263 432.5,136C 447.254,137.662 461.92,136.995 476.5,134C 479.823,132.96 482.823,131.46 485.5,129.5 Z"/></g>
<g><path style="opacity:0.997" fill="#a5c848" d="M 22.5,152.5 C 28.1496,154.889 33.8163,157.389 39.5,160C 118.763,203.766 191.096,256.933 256.5,319.5C 241.167,319.5 225.833,319.5 210.5,319.5C 168.461,279.793 121.461,246.959 69.5,221C 48.9409,211.871 27.9409,204.037 6.5,197.5C 10.2732,181.841 15.6066,166.841 22.5,152.5 Z"/></g>
<g><path style="opacity:0.994" fill="#cbd74d" d="M 410.5,173.5 C 421.511,176.558 432.511,179.725 443.5,183C 456.104,184.983 468.77,186.483 481.5,187.5C 491.072,186.905 500.405,185.239 509.5,182.5C 514.796,200.631 518.462,218.965 520.5,237.5C 520.5,242.5 520.5,247.5 520.5,252.5C 481.815,250.996 445.149,241.662 410.5,224.5C 410.5,207.5 410.5,190.5 410.5,173.5 Z"/></g>
<g><path style="opacity:0.997" fill="#9fc548" d="M 6.5,197.5 C 27.9409,204.037 48.9409,211.871 69.5,221C 121.461,246.959 168.461,279.793 210.5,319.5C 194.167,319.5 177.833,319.5 161.5,319.5C 118.673,283.758 69.6727,260.258 14.5,249C 9.48053,248.589 4.48053,248.089 -0.5,247.5C -0.5,244.167 -0.5,240.833 -0.5,237.5C 1.16622,224.175 3.49955,210.842 6.5,197.5 Z"/></g>
<g><path style="opacity:0.995" fill="#c4d44c" d="M 410.5,224.5 C 445.149,241.662 481.815,250.996 520.5,252.5C 520.5,262.5 520.5,272.5 520.5,282.5C 519.368,290.739 518.035,299.073 516.5,307.5C 479.247,299.205 443.913,285.871 410.5,267.5C 410.5,253.167 410.5,238.833 410.5,224.5 Z"/></g>
<g><path style="opacity:0.996" fill="#99c347" d="M -0.5,247.5 C 4.48053,248.089 9.48053,248.589 14.5,249C 69.6727,260.258 118.673,283.758 161.5,319.5C 135.167,319.5 108.833,319.5 82.5,319.5C 82.5,320.5 82.5,321.5 82.5,322.5C 57.4349,312.323 31.4349,308.656 4.5,311.5C 2.36761,301.905 0.70094,292.238 -0.5,282.5C -0.5,270.833 -0.5,259.167 -0.5,247.5 Z"/></g>
<g><path style="opacity:0.994" fill="#bed24c" d="M 410.5,267.5 C 443.913,285.871 479.247,299.205 516.5,307.5C 513.498,325.19 508.498,342.19 501.5,358.5C 489.62,353.895 477.953,348.728 466.5,343C 447.927,332.244 429.261,321.744 410.5,311.5C 410.5,296.833 410.5,282.167 410.5,267.5 Z"/></g>
<g><path style="opacity:0.993" fill="#b8cf4b" d="M 410.5,311.5 C 429.261,321.744 447.927,332.244 466.5,343C 477.953,348.728 489.62,353.895 501.5,358.5C 495.058,374.72 487.058,390.053 477.5,404.5C 454.355,390.026 432.021,374.359 410.5,357.5C 410.5,342.167 410.5,326.833 410.5,311.5 Z"/></g>
<g><path style="opacity:0.99" fill="#92c046" d="M 82.5,322.5 C 82.1674,336.849 82.5007,351.182 83.5,365.5C 85.1942,370.209 86.8609,374.875 88.5,379.5C 77.2623,374.903 65.5956,371.903 53.5,370.5C 44.5041,372.667 35.5041,374.667 26.5,376.5C 15.9791,355.938 8.6458,334.271 4.5,311.5C 31.4349,308.656 57.4349,312.323 82.5,322.5 Z"/></g>
<g><path style="opacity:0.985" fill="#8dbe45" d="M 88.5,379.5 C 91.6921,380.699 93.3588,383.032 93.5,386.5C 94.9778,386.238 96.3112,386.571 97.5,387.5C 102.726,392.799 109.059,395.799 116.5,396.5C 134.867,414.367 146.367,436.034 151,461.5C 152.215,473.033 151.382,484.366 148.5,495.5C 94.0229,470.023 53.3562,430.357 26.5,376.5C 35.5041,374.667 44.5041,372.667 53.5,370.5C 65.5956,371.903 77.2623,374.903 88.5,379.5 Z"/></g>
<g><path style="opacity:0.987" fill="#b1cc4a" d="M 410.5,357.5 C 432.021,374.359 454.355,390.026 477.5,404.5C 466.291,421.879 452.958,437.546 437.5,451.5C 420.142,432.81 402.475,414.477 384.5,396.5C 393.035,397.094 401.368,396.427 409.5,394.5C 410.499,382.185 410.832,369.851 410.5,357.5 Z"/></g>
<g><path style="opacity:0.994" fill="#92c046" d="M 116.5,396.5 C 137.5,396.5 158.5,396.5 179.5,396.5C 200.901,424.314 214.401,455.647 220,490.5C 221.345,499.515 221.512,508.515 220.5,517.5C 195.114,514.369 171.114,507.035 148.5,495.5C 151.382,484.366 152.215,473.033 151,461.5C 146.367,436.034 134.867,414.367 116.5,396.5 Z"/></g>
<g><path style="opacity:0.996" fill="#98c347" d="M 179.5,396.5 C 198.5,396.5 217.5,396.5 236.5,396.5C 256.882,424.386 273.048,454.719 285,487.5C 288.206,497.703 290.706,508.036 292.5,518.5C 289.167,519.167 285.833,519.833 282.5,520.5C 267.5,520.5 252.5,520.5 237.5,520.5C 231.804,519.697 226.137,518.697 220.5,517.5C 221.512,508.515 221.345,499.515 220,490.5C 214.401,455.647 200.901,424.314 179.5,396.5 Z"/></g>
<g><path style="opacity:0.995" fill="#9fc548" d="M 236.5,396.5 C 251.833,396.5 267.167,396.5 282.5,396.5C 309.506,429.49 331.173,465.823 347.5,505.5C 329.9,512.482 311.566,516.815 292.5,518.5C 290.706,508.036 288.206,497.703 285,487.5C 273.048,454.719 256.882,424.386 236.5,396.5 Z"/></g>
<g><path style="opacity:0.994" fill="#a5c848" d="M 282.5,396.5 C 298.833,396.5 315.167,396.5 331.5,396.5C 342.18,410.503 353.347,424.17 365,437.5C 375.672,452.183 385.838,467.183 395.5,482.5C 380.594,492.285 364.594,499.952 347.5,505.5C 331.173,465.823 309.506,429.49 282.5,396.5 Z"/></g>
<g><path style="opacity:0.992" fill="#abca49" d="M 331.5,396.5 C 349.167,396.5 366.833,396.5 384.5,396.5C 402.475,414.477 420.142,432.81 437.5,451.5C 424.607,463.401 410.607,473.735 395.5,482.5C 385.838,467.183 375.672,452.183 365,437.5C 353.347,424.17 342.18,410.503 331.5,396.5 Z"/></g>
</svg>
