<?xml version="1.0" encoding="UTF-8"?> <svg xmlns="http://www.w3.org/2000/svg" width="346.88" height="346.88" version="1.1" viewBox="0 0 346.88 346.88" xml:space="preserve"><defs><clipPath id="clipPath3450"><path d="M 0,260.159 H 260.159 V 0 H 0 Z"></path></clipPath></defs><g transform="matrix(1.3333 0 0 -1.3333 0 346.88)"><g><g clip-path="url(#clipPath3450)"><g transform="translate(204.45 199.82)"><path d="m0 0c-0.476-1.754-1.573-2.835-2.974-3.881-0.138-0.103-0.285-0.207-0.423-0.311-9e-3 -9e-3 -0.026-0.026-0.043-0.035-0.018-0.017-0.043-0.034-0.061-0.043-0.034-0.025-0.078-0.06-0.13-0.104-0.034-0.025-0.068-0.051-0.103-0.077-9e-3 -9e-3 -9e-3 -9e-3 -0.018-9e-3 -0.034-0.026-0.077-0.052-0.12-0.086-0.044-0.026-0.078-0.061-0.13-0.104 0.025 0.026 0.052 0.043 0.077 0.052-0.224-0.182-0.467-0.363-0.596-0.475-0.908-0.718-1.797-1.452-2.679-2.204-1.823-1.556-3.613-3.164-5.35-4.824-3.647-3.457-7.122-7.104-10.459-10.864-3.172-3.561-6.214-7.234-9.17-10.976-0.285-0.364-0.57-0.726-0.855-1.09-0.018-0.034-0.044-0.069-0.07-0.094-0.026-0.035-0.051-0.07-0.078-0.104l-8e-3 -9e-3c-0.095-0.121-0.19-0.251-0.294-0.38-0.12-0.156-0.164-0.208-0.164-0.208v-8e-3c-0.035-0.043-0.061-0.078-0.095-0.122-0.735-0.959-1.461-1.927-2.187-2.903-1.521-2.04-3.025-4.106-4.503-6.189-5.878-8.289-11.4-16.837-16.621-25.558-9.524-15.903-18.176-32.394-25.454-49.464-3.129-7.443-6.05-15.039-8.098-22.853-0.571-2.179-2.369-3.932-4.53-4.529-2.376-0.649-4.494 0.147-6.309 1.668-1.029 0.873-1.763 2.195-2.55 3.302-1.097 1.53-2.152 3.086-3.198 4.641-6.715 9.957-13.206 20.052-19.715 30.148-7.087 10.994-14.14 22.013-21.158 33.059-1.945 3.06-0.536 7.028 2.325 8.868 3.016 1.945 7.053 0.536 8.868-2.325 3.69-5.8 7.381-11.598 11.089-17.381 7.338-11.461 14.693-22.896 22.143-34.279 1.531-2.333 3.06-4.667 4.599-6.992 2.04 5.549 4.339 11.003 6.715 16.396 4.659 10.597 9.845 20.959 15.394 31.116 6.084 11.123 12.627 22.013 19.68 32.558 7.131 10.657 14.789 21.02 23.19 30.726 7.399 8.557 15.454 16.5 24.546 23.268 1.366 1.02 3.397 1.011 4.996 0.648 1.651-0.371 2.982-1.59 3.873-2.982 0.889-1.374 1.08-3.44 0.648-4.987" fill="#fff"></path></g><g transform="translate(204.45 199.82)"><path d="m0 0c-0.476-1.754-1.573-2.835-2.974-3.881-0.138-0.103-0.285-0.207-0.423-0.311-9e-3 -9e-3 -0.026-0.026-0.043-0.035-0.018-0.017-0.043-0.034-0.061-0.043-0.034-0.025-0.078-0.06-0.13-0.104-0.034-0.025-0.068-0.051-0.103-0.077-9e-3 -9e-3 -9e-3 -9e-3 -0.018-9e-3 -0.034-0.026-0.077-0.052-0.12-0.086-0.044-0.026-0.078-0.061-0.13-0.104 0.025 0.026 0.052 0.043 0.077 0.052-0.224-0.182-0.467-0.363-0.596-0.475-0.908-0.718-1.797-1.452-2.679-2.204-1.823-1.556-3.613-3.164-5.35-4.824-3.647-3.457-7.122-7.104-10.459-10.864-3.172-3.561-6.214-7.234-9.17-10.976-0.285-0.364-0.57-0.726-0.855-1.09-0.018-0.034-0.044-0.069-0.07-0.094-0.026-0.035-0.051-0.07-0.078-0.104l-8e-3 -9e-3c-0.095-0.121-0.19-0.251-0.294-0.38-0.12-0.156-0.164-0.208-0.164-0.208v-8e-3c-0.035-0.043-0.061-0.078-0.095-0.122-0.735-0.959-1.461-1.927-2.187-2.903-1.521-2.04-3.025-4.106-4.503-6.189-5.878-8.289-11.4-16.837-16.621-25.558-9.524-15.903-18.176-32.394-25.454-49.464-3.129-7.443-6.05-15.039-8.098-22.853-0.571-2.179-2.369-3.932-4.53-4.529-2.376-0.649-4.494 0.147-6.309 1.668-1.029 0.873-1.763 2.195-2.55 3.302-1.097 1.53-2.152 3.086-3.198 4.641-6.715 9.957-13.206 20.052-19.715 30.148-7.087 10.994-14.14 22.013-21.158 33.059-1.945 3.06-0.536 7.028 2.325 8.868 3.016 1.945 7.053 0.536 8.868-2.325 3.69-5.8 7.381-11.598 11.089-17.381 7.338-11.461 14.693-22.896 22.143-34.279 1.531-2.333 3.06-4.667 4.599-6.992 2.04 5.549 4.339 11.003 6.715 16.396 4.659 10.597 9.845 20.959 15.394 31.116 6.084 11.123 12.627 22.013 19.68 32.558 7.131 10.657 14.789 21.02 23.19 30.726 7.399 8.557 15.454 16.5 24.546 23.268 1.366 1.02 3.397 1.011 4.996 0.648 1.651-0.371 2.982-1.59 3.873-2.982 0.889-1.374 1.08-3.44 0.648-4.987z" fill="none" stroke="#fff" stroke-linecap="round" stroke-linejoin="round" stroke-miterlimit="10" stroke-width="11"></path></g><g transform="translate(200.7 195.36)"><path d="m0 0c-0.052-0.052-0.112-0.095-0.173-0.138-0.025-9e-3 -0.052-0.026-0.077-0.052 0.052 0.043 0.086 0.078 0.13 0.104 0.043 0.034 0.086 0.06 0.12 0.086" fill="#fff"></path></g><g transform="translate(200.7 195.36)"><path d="m0 0c-0.052-0.052-0.112-0.095-0.173-0.138-0.025-9e-3 -0.052-0.026-0.077-0.052 0.052 0.043 0.086 0.078 0.13 0.104 0.043 0.034 0.086 0.06 0.12 0.086z" fill="none" stroke="#fff" stroke-linecap="round" stroke-linejoin="round" stroke-miterlimit="10" stroke-width="11"></path></g><g transform="translate(200.95 195.55)"><path d="m0 0c-0.018-0.018-0.025-0.026-0.043-0.043-0.026-0.018-0.061-0.035-0.087-0.061 0.052 0.043 0.096 0.078 0.13 0.104" fill="#fff"></path></g><g transform="translate(200.95 195.55)"><path d="m0 0c-0.018-0.018-0.025-0.026-0.043-0.043-0.026-0.018-0.061-0.035-0.087-0.061 0.052 0.043 0.096 0.078 0.13 0.104z" fill="none" stroke="#fff" stroke-linecap="round" stroke-linejoin="round" stroke-miterlimit="10" stroke-width="11"></path></g></g></g></g></svg> 