<?xml version="1.0" encoding="UTF-8"?> <svg xmlns="http://www.w3.org/2000/svg" width="346.88" height="346.88" version="1.1" viewBox="0 0 346.88 346.88" xml:space="preserve"><defs><clipPath id="clipPath5943"><path d="M 0,260.159 H 260.159 V 0 H 0 Z"></path></clipPath></defs><g transform="matrix(1.3333 0 0 -1.3333 0 346.88)"><g><g clip-path="url(#clipPath5943)"><g transform="translate(130.08 227.11)"><path d="m0 0c-5.231 0-9.833-3.343-11.449-8.318l-17.743-54.608h-57.417c-5.232 0-9.834-3.343-11.45-8.319-1.617-4.976 0.141-10.384 4.373-13.46l46.452-33.748-17.743-54.608c-1.188-3.654-0.551-7.687 1.702-10.788 2.263-3.115 5.908-4.975 9.751-4.975 2.552 0 4.998 0.797 7.072 2.303l46.452 33.75 46.452-33.749c2.074-1.507 4.52-2.304 7.072-2.304 3.843 0 7.488 1.86 9.751 4.974 2.253 3.101 2.89 7.135 1.703 10.789l-17.743 54.608 46.452 33.749c4.232 3.075 5.989 8.484 4.373 13.459-1.617 4.976-6.218 8.319-11.45 8.319h-57.417l-17.743 54.608c-1.617 4.975-6.219 8.318-11.45 8.318m0-11c0.417 0 0.833-0.239 0.988-0.718l19.385-59.658c0.493-1.52 1.91-2.55 3.508-2.55h62.729c1.006 0 1.425-1.287 0.611-1.879l-50.749-36.871c-1.293-0.939-1.834-2.605-1.34-4.125l19.384-59.658c0.237-0.729-0.342-1.365-0.992-1.365-0.203 0-0.413 0.062-0.607 0.203l-50.748 36.871c-0.647 0.47-1.408 0.705-2.169 0.705s-1.522-0.235-2.168-0.705l-50.749-36.871c-0.194-0.141-0.404-0.203-0.607-0.203-0.649 0-1.228 0.636-0.992 1.365l19.385 59.658c0.494 1.52-0.048 3.186-1.341 4.125l-50.748 36.871c-0.814 0.592-0.396 1.879 0.611 1.879h62.728c1.598 0 3.015 1.03 3.509 2.55l19.384 59.658c0.156 0.479 0.572 0.718 0.988 0.718" fill="#fff"></path></g><g transform="translate(158.74 90.024)"><path d="m0 0v-45.98h-57.314v45.98c0 8.708 6.67 15.881 15.2 16.648 0.976 0.088 1.91 0.435 2.627 1.104l0.256 0.239c1.028 0.96 0.798 2.615-0.427 3.307-7.113 4.023-11.796 11.822-11.345 20.66 0.585 11.488 10.25 20.9 21.749 21.199 12.644 0.328 22.973-9.8 22.973-22.369 0-8.349-4.573-15.64-11.366-19.484-1.228-0.696-1.465-2.353-0.433-3.316l0.254-0.237c0.716-0.668 1.65-1.014 2.625-1.103 8.491-0.773 15.201-7.965 15.201-16.648" fill="#fff"></path></g></g></g></g></svg> 