<?xml version="1.0" encoding="UTF-8"?> <svg xmlns="http://www.w3.org/2000/svg" width="346.88" height="346.88" version="1.1" viewBox="0 0 346.88 346.88" xml:space="preserve"><defs><clipPath id="clipPath9102"><path d="M 0,260.159 H 260.159 V 0 H 0 Z"></path></clipPath></defs><g transform="matrix(1.3333 0 0 -1.3333 0 346.88)"><g><g clip-path="url(#clipPath9102)"><g transform="translate(199.22 95.216)"><path d="m0 0c-1.992-1.16-44.991-26.152-58.005-31.834-0.833-0.36-1.704-0.544-2.601-0.544-0.479 0-0.964 0.053-1.436 0.164-4.914 1.134-13.728 4.05-20.805 6.396-3.512 1.166-6.835 2.26-9.22 2.994-1.094 0.335-2.227 0.505-3.374 0.505-2.097 0-4.162-0.577-5.963-1.664l-18.427-11.115v41.041l10.406 4.574 1.73 0.76h7e-3l5.353 2.366 0.013-7e-3 0.236 0.105-6e-3 6e-3 5.949 2.615 4.391 1.933c0.413 0.184 0.845 0.275 1.291 0.275 0.308 0 0.616-0.046 0.911-0.131l1.068-0.471 38.549-16.966 2.229-0.982 0.019-7e-3 0.013-7e-3c0.197-0.085 0.427-0.216 0.741-0.419l0.073-0.046c0.045-0.033 0.097-0.072 0.143-0.105 0.066-0.045 0.125-0.091 0.177-0.137l0.026-0.027 0.027-0.019c0.111-0.092 0.249-0.224 0.386-0.36l0.23-0.249c0.104-0.132 0.209-0.27 0.307-0.407 0.053-0.079 0.099-0.158 0.145-0.229 6e-3 -7e-3 0.013-0.02 0.013-0.027 0.118-0.203 0.229-0.406 0.314-0.602 0.072-0.164 0.138-0.341 0.197-0.525 0.013-0.045 0.033-0.091 0.046-0.144 0.033-0.118 0.066-0.23 0.085-0.321v-0.027l6e-3 -0.025c0.191-0.879 0.138-1.796-0.15-2.654-0.027-0.073-0.059-0.151-0.085-0.23l-0.027-0.065c-6e-3 -0.02-0.019-0.039-0.026-0.059l-0.046-0.111-0.039-0.086c-0.039-0.085-0.059-0.124-0.065-0.138l-0.184-0.327c-0.013-0.02-0.026-0.039-0.039-0.059l-0.131-0.203c-0.02-0.026-0.046-0.059-0.079-0.105l-0.164-0.223c-0.02-0.019-0.032-0.039-0.052-0.058l-0.229-0.256-0.053-0.053c-0.144-0.144-0.299-0.274-0.454-0.395-0.771-0.59-1.673-0.982-2.638-1.086-0.9-0.098-1.777 0.027-2.59 0.387l-25.791 11.893c-0.597 0.275-1.284 0.281-1.886 0.015-1.811-0.796-1.832-3.357-0.036-4.185l25.833-11.91c1.265-0.557 2.582-0.82 3.886-0.82 0.615 0 1.225 0.066 1.828 0.177 1.907 0.36 3.683 1.285 5.078 2.667 0.171 0.164 0.329 0.335 0.479 0.512v6e-3c0.157 0.177 0.308 0.361 0.445 0.55v7e-3c0.092 0.118 0.171 0.243 0.256 0.368 0.046 0.071 0.105 0.136 0.151 0.215v7e-3c0.13 0.203 0.255 0.406 0.367 0.622v7e-3c0.118 0.21 0.222 0.433 0.321 0.655v7e-3c0.059 0.138 0.118 0.269 0.17 0.406v6e-3c0.053 0.138 0.105 0.276 0.151 0.413 0.557 1.671 0.635 3.414 0.288 5.053-0.065 0.327-0.157 0.649-0.255 0.97-0.105 0.314-0.223 0.629-0.354 0.936-0.092 0.217-0.196 0.433-0.309 0.643l31.559 13.898c3.041 1.337 5.721 2.012 7.969 2.012 1.88 0 3.453-0.472 4.809-1.448 1.488-1.075 2.51-2.746 2.811-4.58 0.217-1.337 0.885-5.394-5.963-9.718m10.491 10.458c-0.498 3.021-2.176 5.767-4.652 7.556-2.189 1.579-4.705 2.319-7.496 2.319-2.976 0-6.265-0.839-9.817-2.398l-32.947-14.508c-0.459 0.295-0.918 0.57-1.435 0.793l-40.778 17.948-1.285 0.563c-0.812 0.282-1.671 0.426-2.542 0.426-1.055 0-2.123-0.216-3.139-0.662l-8.938-3.932-6.068-2.673-4.659-2.051-6.572-2.89c-0.132 4.207-3.618 7.614-7.857 7.614h-13.394c-4.325 0-7.864-3.538-7.864-7.863v-54.185c0-4.325 3.539-7.864 7.864-7.864h13.394c4.324 0 7.863 3.539 7.863 7.864v3.028l20.799 12.548c1.094 0.662 2.339 1.003 3.591 1.003 0.681 0 1.362-0.099 2.031-0.302 7.162-2.195 22.732-7.719 30.333-9.475 0.819-0.19 1.644-0.282 2.471-0.282 1.519 0 3.027 0.308 4.435 0.924 13.656 5.963 58.55 32.115 58.55 32.115 7.464 4.686 8.833 9.974 8.112 14.384" fill="#fff"></path></g><g transform="translate(199.22 95.216)"><path d="m0 0c-1.992-1.16-44.991-26.152-58.005-31.834-0.833-0.36-1.704-0.544-2.601-0.544-0.479 0-0.964 0.053-1.436 0.164-4.914 1.134-13.728 4.05-20.805 6.396-3.512 1.166-6.835 2.26-9.22 2.994-1.094 0.335-2.227 0.505-3.374 0.505-2.097 0-4.162-0.577-5.963-1.664l-18.427-11.115v41.041l10.406 4.574 1.73 0.76h7e-3l5.353 2.366 0.013-7e-3 0.236 0.105-6e-3 6e-3 5.949 2.615 4.391 1.933c0.413 0.184 0.845 0.275 1.291 0.275 0.308 0 0.616-0.046 0.911-0.131l1.068-0.471 38.549-16.966 2.229-0.982 0.019-7e-3 0.013-7e-3c0.197-0.085 0.427-0.216 0.741-0.419l0.073-0.046c0.045-0.033 0.097-0.072 0.143-0.105 0.066-0.045 0.125-0.091 0.177-0.137l0.026-0.027 0.027-0.019c0.111-0.092 0.249-0.224 0.386-0.36l0.23-0.249c0.104-0.132 0.209-0.27 0.307-0.407 0.053-0.079 0.099-0.158 0.145-0.229 6e-3 -7e-3 0.013-0.02 0.013-0.027 0.118-0.203 0.229-0.406 0.314-0.602 0.072-0.164 0.138-0.341 0.197-0.525 0.013-0.045 0.033-0.091 0.046-0.144 0.033-0.118 0.066-0.23 0.085-0.321v-0.027l6e-3 -0.025c0.191-0.879 0.138-1.796-0.15-2.654-0.027-0.073-0.059-0.151-0.085-0.23l-0.027-0.065c-6e-3 -0.02-0.019-0.039-0.026-0.059l-0.046-0.111-0.039-0.086c-0.039-0.085-0.059-0.124-0.065-0.138l-0.184-0.327c-0.013-0.02-0.026-0.039-0.039-0.059l-0.131-0.203c-0.02-0.026-0.046-0.059-0.079-0.105l-0.164-0.223c-0.02-0.019-0.032-0.039-0.052-0.058l-0.229-0.256-0.053-0.053c-0.144-0.144-0.299-0.274-0.454-0.395-0.771-0.59-1.673-0.982-2.638-1.086-0.9-0.098-1.777 0.027-2.59 0.387l-25.791 11.893c-0.597 0.275-1.284 0.281-1.886 0.015-1.811-0.796-1.832-3.357-0.036-4.185l25.833-11.91c1.265-0.557 2.582-0.82 3.886-0.82 0.615 0 1.225 0.066 1.828 0.177 1.907 0.36 3.683 1.285 5.078 2.667 0.171 0.164 0.329 0.335 0.479 0.512v6e-3c0.157 0.177 0.308 0.361 0.445 0.55v7e-3c0.092 0.118 0.171 0.243 0.256 0.368 0.046 0.071 0.105 0.136 0.151 0.215v7e-3c0.13 0.203 0.255 0.406 0.367 0.622v7e-3c0.118 0.21 0.222 0.433 0.321 0.655v7e-3c0.059 0.138 0.118 0.269 0.17 0.406v6e-3c0.053 0.138 0.105 0.276 0.151 0.413 0.557 1.671 0.635 3.414 0.288 5.053-0.065 0.327-0.157 0.649-0.255 0.97-0.105 0.314-0.223 0.629-0.354 0.936-0.092 0.217-0.196 0.433-0.309 0.643l31.559 13.898c3.041 1.337 5.721 2.012 7.969 2.012 1.88 0 3.453-0.472 4.809-1.448 1.488-1.075 2.51-2.746 2.811-4.58 0.217-1.337 0.885-5.394-5.963-9.718zm10.491 10.458c-0.498 3.021-2.176 5.767-4.652 7.556-2.189 1.579-4.705 2.319-7.496 2.319-2.976 0-6.265-0.839-9.817-2.398l-32.947-14.508c-0.459 0.295-0.918 0.57-1.435 0.793l-40.778 17.948-1.285 0.563c-0.812 0.282-1.671 0.426-2.542 0.426-1.055 0-2.123-0.216-3.139-0.662l-8.938-3.932-6.068-2.673-4.659-2.051-6.572-2.89c-0.132 4.207-3.618 7.614-7.857 7.614h-13.394c-4.325 0-7.864-3.538-7.864-7.863v-54.185c0-4.325 3.539-7.864 7.864-7.864h13.394c4.324 0 7.863 3.539 7.863 7.864v3.028l20.799 12.548c1.094 0.662 2.339 1.003 3.591 1.003 0.681 0 1.362-0.099 2.031-0.302 7.162-2.195 22.732-7.719 30.333-9.475 0.819-0.19 1.644-0.282 2.471-0.282 1.519 0 3.027 0.308 4.435 0.924 13.656 5.963 58.55 32.115 58.55 32.115 7.464 4.686 8.833 9.974 8.112 14.384z" fill="none" stroke="#fff" stroke-linecap="round" stroke-linejoin="round" stroke-miterlimit="10" stroke-width="4"></path></g><g transform="translate(169.5 158.36)"><path d="m0 0c-1.617-2.668-3.946-5.043-6.815-6.35-3.162-1.443-7.456-1.727-10.836-1.069-1.773 0.338-3.527 1.005-5.153 1.919-0.411 0.219-0.804 0.466-1.187 0.722-2.303 1.534-4.268 3.59-5.51 5.993-2.175 4.212-2.129 9.109-0.923 13.604 1.636 6.103 10.508 16.205 15.31 19.854 1.404 1.068-0.579 3.064-1.938 1.937-4.305-3.569-12.632-11.915-14.87-17.625-1.891-4.806-2.76-10.187-1.453-15.248 0.749-2.851 2.248-5.464 4.23-7.638-7.674 3.992-13.439 11.511-7.893 24.741 9e-3 0.036 1.718 5.354 7.218 11.302 2.96 3.161 6.157 6.111 9.428 8.953 3.856 3.335 7.839 6.532 12.069 9.374 1.782 1.197 3.599 2.339 5.518 3.298 0.193 0.101 0.393 0.192 0.585 0.293-1.837-3.226-3.06-6.871-3.609-10.498-0.393-2.65-0.429-5.317 0.046-7.967 0.512-2.842 1.763-5.226 3.271-7.647 5.153-8.278 7.903-19.086 2.512-27.948m4.121 20.383c-1.197 3.591-2.978 6.88-4.998 10.077-1.718 2.723-2.513 5.82-2.53 9.027-0.028 5.802 2.129 11.786 5.655 16.372 0.612 0.786-0.201 2.175-1.179 2.065-3.179-0.365-6.139-2.147-8.807-3.81-3.919-2.448-7.611-5.281-11.183-8.204-3.591-2.942-7.071-6.039-10.37-9.301-2.777-2.75-5.445-5.582-7.428-8.972-3.197-5.445-5.317-11.694-5.353-18.072-0.055-10.561 9.593-15.787 17.358-18.19 4.176-2.777 6.423-6.459 6.661-10.963 0.366-6.917-4.138-13.933-6.651-15.751-0.822-0.594-1.005-1.737-0.411-2.559 0.356-0.493 0.913-0.749 1.479-0.749 0.375 0 0.75 0.109 1.07 0.348 3.608 2.603 8.597 10.844 8.168 18.903-0.147 2.658-0.923 5.975-3.289 9.154-0.019 0.028-0.028 0.055-0.055 0.073 0.849-0.146 1.699-0.237 2.557-0.283 5.29-0.283 10.727 1.37 14.463 5.107 6.743 6.734 7.748 16.993 4.843 25.728" fill="#fff"></path></g><g transform="translate(169.5 158.36)"><path d="m0 0c-1.617-2.668-3.946-5.043-6.815-6.35-3.162-1.443-7.456-1.727-10.836-1.069-1.773 0.338-3.527 1.005-5.153 1.919-0.411 0.219-0.804 0.466-1.187 0.722-2.303 1.534-4.268 3.59-5.51 5.993-2.175 4.212-2.129 9.109-0.923 13.604 1.636 6.103 10.508 16.205 15.31 19.854 1.404 1.068-0.579 3.064-1.938 1.937-4.305-3.569-12.632-11.915-14.87-17.625-1.891-4.806-2.76-10.187-1.453-15.248 0.749-2.851 2.248-5.464 4.23-7.638-7.674 3.992-13.439 11.511-7.893 24.741 9e-3 0.036 1.718 5.354 7.218 11.302 2.96 3.161 6.157 6.111 9.428 8.953 3.856 3.335 7.839 6.532 12.069 9.374 1.782 1.197 3.599 2.339 5.518 3.298 0.193 0.101 0.393 0.192 0.585 0.293-1.837-3.226-3.06-6.871-3.609-10.498-0.393-2.65-0.429-5.317 0.046-7.967 0.512-2.842 1.763-5.226 3.271-7.647 5.153-8.278 7.903-19.086 2.512-27.948zm4.121 20.383c-1.197 3.591-2.978 6.88-4.998 10.077-1.718 2.723-2.513 5.82-2.53 9.027-0.028 5.802 2.129 11.786 5.655 16.372 0.612 0.786-0.201 2.175-1.179 2.065-3.179-0.365-6.139-2.147-8.807-3.81-3.919-2.448-7.611-5.281-11.183-8.204-3.591-2.942-7.071-6.039-10.37-9.301-2.777-2.75-5.445-5.582-7.428-8.972-3.197-5.445-5.317-11.694-5.353-18.072-0.055-10.561 9.593-15.787 17.358-18.19 4.176-2.777 6.423-6.459 6.661-10.963 0.366-6.917-4.138-13.933-6.651-15.751-0.822-0.594-1.005-1.737-0.411-2.559 0.356-0.493 0.913-0.749 1.479-0.749 0.375 0 0.75 0.109 1.07 0.348 3.608 2.603 8.597 10.844 8.168 18.903-0.147 2.658-0.923 5.975-3.289 9.154-0.019 0.028-0.028 0.055-0.055 0.073 0.849-0.146 1.699-0.237 2.557-0.283 5.29-0.283 10.727 1.37 14.463 5.107 6.743 6.734 7.748 16.993 4.843 25.728z" fill="none" stroke="#fff" stroke-linecap="round" stroke-linejoin="round" stroke-miterlimit="10" stroke-width="4"></path></g></g></g></g></svg> 