<?xml version="1.0" encoding="UTF-8"?> <svg xmlns="http://www.w3.org/2000/svg" width="346.88" height="346.88" version="1.1" viewBox="0 0 346.88 346.88" xml:space="preserve"><defs><clipPath id="clipPath3397"><path d="M 0,260.159 H 260.159 V 0 H 0 Z"></path></clipPath></defs><g transform="matrix(1.3333 0 0 -1.3333 0 346.88)"><g><g clip-path="url(#clipPath3397)"><g transform="translate(68.428 148.21)"><path d="m0 0v-57.832c0-4.598-4.667-8.361-10.372-8.361h-17.865c-4.745 0-8.773 2.607-9.992 6.132-0.25 0.711-0.38 1.456-0.38 2.229v57.832c0 0.669 0.095 1.317 0.285 1.937 1.089 3.672 5.212 6.424 10.087 6.424h17.865c5.705 0 10.372-3.762 10.372-8.361" fill="#fff"></path></g><g transform="translate(230.34 148.21)"><path d="m0 0v-57.832c0-4.598-4.667-8.361-10.372-8.361h-17.865c-4.745 0-8.773 2.607-9.992 6.132-0.25 0.711-0.379 1.456-0.379 2.229v57.832c0 0.669 0.094 1.317 0.285 1.937 1.089 3.672 5.212 6.424 10.086 6.424h17.865c5.705 0 10.372-3.762 10.372-8.361" fill="#fff"></path></g><g transform="translate(130.08 227.14)"><path d="m0 0c-48.212 0-87.296-39.084-87.296-87.296 0-9.879 1.642-19.37 4.667-28.22 2.68 7.883 6.465 15.247 11.167 21.928-0.181 2.074-0.276 4.174-0.276 6.292 0 39.56 32.178 71.738 71.738 71.738 39.559 0 71.738-32.178 71.738-71.738 0-2.118-0.095-4.218-0.277-6.292 4.703-6.681 8.488-14.045 11.167-21.928 3.025 8.85 4.667 18.341 4.667 28.22 0 48.212-39.084 87.296-87.295 87.296" fill="#fff"></path></g><g transform="translate(136.99 35.965)"><path d="m0 0c48.212 0 87.296 39.085 87.296 87.296 0 9.879-1.643 19.37-4.667 28.22-2.68-7.883-6.466-15.246-11.167-21.928 0.182-2.074 0.276-4.174 0.276-6.292 0-39.56-32.178-71.738-71.738-71.738z" fill="#fff"></path></g><g transform="translate(150.48 33.017)"><path d="m0 0h-26.967c-2.144 0-3.899 2.613-3.899 5.808v10.005c0 2.656 1.216 4.912 2.86 5.594 0.331 0.141 0.678 0.213 1.039 0.213h26.967c0.312 0 0.614-0.054 0.903-0.16 1.713-0.609 2.996-2.918 2.996-5.647v-10.005c0-3.195-1.754-5.808-3.899-5.808" fill="#fff"></path></g></g></g></g></svg> 