<?xml version="1.0" encoding="UTF-8"?>
<!DOCTYPE svg PUBLIC "-//W3C//DTD SVG 1.1//EN" "http://www.w3.org/Graphics/SVG/1.1/DTD/svg11.dtd">
<svg xmlns="http://www.w3.org/2000/svg" version="1.1" width="521px" height="521px" style="shape-rendering:geometricPrecision; text-rendering:geometricPrecision; image-rendering:optimizeQuality; fill-rule:evenodd; clip-rule:evenodd" xmlns:xlink="http://www.w3.org/1999/xlink">
<g><path style="opacity:0.995" fill="#cbd74d" d="M 237.5,-0.5 C 248.5,-0.5 259.5,-0.5 270.5,-0.5C 272.165,29.8125 281.498,57.4792 298.5,82.5C 279.308,78.6956 259.974,77.6956 240.5,79.5C 229.504,61.84 220.337,43.1733 213,23.5C 211.46,17.0499 209.626,10.7165 207.5,4.5C 217.538,2.44931 227.538,0.782644 237.5,-0.5 Z"/></g>
<g><path style="opacity:0.993" fill="#d1d94e" d="M 270.5,-0.5 C 274.5,-0.5 278.5,-0.5 282.5,-0.5C 295.536,1.06284 308.536,3.39617 321.5,6.5C 320.178,16.1784 320.345,25.8451 322,35.5C 326.731,54.0664 335.065,70.733 347,85.5C 372.983,115.994 405.983,133.327 446,137.5C 456.264,137.099 466.43,135.932 476.5,134C 479.823,132.96 482.823,131.46 485.5,129.5C 495.802,146.051 503.802,163.718 509.5,182.5C 500.405,185.239 491.072,186.905 481.5,187.5C 461.675,186.868 442.341,183.534 423.5,177.5C 395.99,127.338 354.324,95.671 298.5,82.5C 281.498,57.4792 272.165,29.8125 270.5,-0.5 Z"/></g>
<g><path style="opacity:0.986" fill="#d6db4f" d="M 321.5,6.5 C 384.325,22.4747 434.825,56.4747 473,108.5C 477.693,115.225 481.86,122.225 485.5,129.5C 482.823,131.46 479.823,132.96 476.5,134C 466.43,135.932 456.264,137.099 446,137.5C 405.983,133.327 372.983,115.994 347,85.5C 335.065,70.733 326.731,54.0664 322,35.5C 320.345,25.8451 320.178,16.1784 321.5,6.5 Z"/></g>
<g><path style="opacity:0.991" fill="#c4d44c" d="M 207.5,4.5 C 209.626,10.7165 211.46,17.0499 213,23.5C 220.337,43.1733 229.504,61.84 240.5,79.5C 226.874,80.7584 213.541,83.4251 200.5,87.5C 184.364,66.2411 171.03,43.2411 160.5,18.5C 175.669,12.2221 191.335,7.55545 207.5,4.5 Z"/></g>
<g><path style="opacity:0.991" fill="#bed24c" d="M 160.5,18.5 C 171.03,43.2411 184.364,66.2411 200.5,87.5C 188.49,91.6712 176.823,96.6712 165.5,102.5C 157.24,92.3976 148.74,82.3976 140,72.5C 132.479,62.0994 124.979,51.766 117.5,41.5C 131.035,32.5624 145.369,24.8957 160.5,18.5 Z"/></g>
<g><path style="opacity:0.991" fill="#b8cf4b" d="M 117.5,41.5 C 124.979,51.766 132.479,62.0994 140,72.5C 148.74,82.3976 157.24,92.3976 165.5,102.5C 155.243,109.415 145.243,116.749 135.5,124.5C 116.809,106.809 98.8091,88.4761 81.5,69.5C 92.6175,59.0513 104.617,49.7179 117.5,41.5 Z"/></g>
<g><path style="opacity:1" fill="#fefefe" d="M 298.5,82.5 C 354.324,95.671 395.99,127.338 423.5,177.5C 433.764,196.625 440.43,216.958 443.5,238.5C 442.856,257.499 433.19,264.999 414.5,261C 409.667,258.833 406.167,255.333 404,250.5C 402.234,239.101 399.401,228.101 395.5,217.5C 377.986,169.046 344.319,137.879 294.5,124C 287.279,122.074 279.946,120.908 272.5,120.5C 257.758,118.948 243.092,119.614 228.5,122.5C 216.811,125.507 205.478,129.507 194.5,134.5C 184.091,139.362 174.758,145.695 166.5,153.5C 156.814,160.853 148.481,169.519 141.5,179.5C 154.821,180.333 168.154,180.833 181.5,181C 194.466,185.081 199.633,193.914 197,207.5C 195.08,212.576 191.914,216.576 187.5,219.5C 185.821,219.892 184.154,220.392 182.5,221C 168.171,221.5 153.837,221.667 139.5,221.5C 121.777,221.945 104.111,221.445 86.5,220C 81.9499,217.117 78.4499,213.284 76,208.5C 74.6411,198.891 74.1411,189.224 74.5,179.5C 74.5,163.5 74.5,147.5 74.5,131.5C 73.7515,123.17 74.9182,115.17 78,107.5C 86.94,97.5287 97.1066,96.0287 108.5,103C 111.531,105.559 113.698,108.726 115,112.5C 115.168,122.849 115.668,133.183 116.5,143.5C 122.521,136.812 128.854,130.479 135.5,124.5C 145.243,116.749 155.243,109.415 165.5,102.5C 176.823,96.6712 188.49,91.6712 200.5,87.5C 213.541,83.4251 226.874,80.7584 240.5,79.5C 259.974,77.6956 279.308,78.6956 298.5,82.5 Z"/></g>
<g><path style="opacity:0.975" fill="#b1cc4a" d="M 81.5,69.5 C 98.8091,88.4761 116.809,106.809 135.5,124.5C 128.854,130.479 122.521,136.812 116.5,143.5C 115.668,133.183 115.168,122.849 115,112.5C 113.698,108.726 111.531,105.559 108.5,103C 97.1066,96.0287 86.94,97.5287 78,107.5C 74.9182,115.17 73.7515,123.17 74.5,131.5C 64.7705,124.975 55.4372,117.975 46.5,110.5C 56.2994,95.3573 67.9661,81.6907 81.5,69.5 Z"/></g>
<g><path style="opacity:0.986" fill="#abca49" d="M 46.5,110.5 C 55.4372,117.975 64.7705,124.975 74.5,131.5C 74.5,147.5 74.5,163.5 74.5,179.5C 57.7372,169.452 40.4039,160.452 22.5,152.5C 28.5089,137.207 36.5089,123.207 46.5,110.5 Z"/></g>
<g><path style="opacity:0.998" fill="#c4d44c" d="M 272.5,120.5 C 307.394,160.744 348.394,193.077 395.5,217.5C 399.401,228.101 402.234,239.101 404,250.5C 406.167,255.333 409.667,258.833 414.5,261C 433.19,264.999 442.856,257.499 443.5,238.5C 468.452,246.937 494.119,251.604 520.5,252.5C 520.5,262.5 520.5,272.5 520.5,282.5C 519.368,290.739 518.035,299.073 516.5,307.5C 478.26,298.715 441.927,284.882 407.5,266C 339.571,228.673 279.904,180.84 228.5,122.5C 243.092,119.614 257.758,118.948 272.5,120.5 Z"/></g>
<g><path style="opacity:1" fill="#c9d64d" d="M 272.5,120.5 C 279.946,120.908 287.279,122.074 294.5,124C 344.319,137.879 377.986,169.046 395.5,217.5C 348.394,193.077 307.394,160.744 272.5,120.5 Z"/></g>
<g><path style="opacity:0.998" fill="#bed24c" d="M 228.5,122.5 C 279.904,180.84 339.571,228.673 407.5,266C 441.927,284.882 478.26,298.715 516.5,307.5C 513.498,325.19 508.498,342.19 501.5,358.5C 481.586,350.208 462.252,340.875 443.5,330.5C 445.579,317.477 440.579,308.644 428.5,304C 418.506,303.5 408.506,303.334 398.5,303.5C 324.599,254.801 256.599,198.468 194.5,134.5C 205.478,129.507 216.811,125.507 228.5,122.5 Z"/></g>
<g><path style="opacity:1" fill="#b8cf4b" d="M 194.5,134.5 C 256.599,198.468 324.599,254.801 398.5,303.5C 379.167,303.5 359.833,303.5 340.5,303.5C 281.048,255.402 223.048,205.402 166.5,153.5C 174.758,145.695 184.091,139.362 194.5,134.5 Z"/></g>
<g><path style="opacity:0.993" fill="#cbd74d" d="M 423.5,177.5 C 442.341,183.534 461.675,186.868 481.5,187.5C 491.072,186.905 500.405,185.239 509.5,182.5C 514.796,200.631 518.462,218.965 520.5,237.5C 520.5,242.5 520.5,247.5 520.5,252.5C 494.119,251.604 468.452,246.937 443.5,238.5C 440.43,216.958 433.764,196.625 423.5,177.5 Z"/></g>
<g><path style="opacity:0.998" fill="#9fc548" d="M 6.5,197.5 C 42.2891,208.228 76.2891,223.061 108.5,242C 177.993,283.981 237.326,337.481 286.5,402.5C 271.751,405.573 256.751,406.24 241.5,404.5C 208.461,357.124 167.128,318.791 117.5,289.5C 117.544,280.146 114.21,272.312 107.5,266C 97.27,260.522 87.9367,261.688 79.5,269.5C 54.2415,257.532 27.5749,250.199 -0.5,247.5C -0.5,244.167 -0.5,240.833 -0.5,237.5C 1.16622,224.175 3.49955,210.842 6.5,197.5 Z"/></g>
<g><path style="opacity:1" fill="#b1cc4a" d="M 166.5,153.5 C 223.048,205.402 281.048,255.402 340.5,303.5C 328.184,304.482 321.518,311.149 320.5,323.5C 321.183,334.062 326.517,340.895 336.5,344C 350.167,344.333 363.833,344.667 377.5,345C 373.713,350.456 369.546,355.623 365,360.5C 362.253,363.754 359.086,366.42 355.5,368.5C 300.663,317.319 244.663,267.652 187.5,219.5C 191.914,216.576 195.08,212.576 197,207.5C 199.633,193.914 194.466,185.081 181.5,181C 168.154,180.833 154.821,180.333 141.5,179.5C 148.481,169.519 156.814,160.853 166.5,153.5 Z"/></g>
<g><path style="opacity:1" fill="#abca49" d="M 187.5,219.5 C 244.663,267.652 300.663,317.319 355.5,368.5C 346.54,377.449 336.206,384.449 324.5,389.5C 268.346,326.993 206.68,270.993 139.5,221.5C 153.837,221.667 168.171,221.5 182.5,221C 184.154,220.392 185.821,219.892 187.5,219.5 Z"/></g>
<g><path style="opacity:1" fill="#a5c848" d="M 22.5,152.5 C 40.4039,160.452 57.7372,169.452 74.5,179.5C 74.1411,189.224 74.6411,198.891 76,208.5C 78.4499,213.284 81.9499,217.117 86.5,220C 104.111,221.445 121.777,221.945 139.5,221.5C 206.68,270.993 268.346,326.993 324.5,389.5C 312.733,396.201 300.066,400.534 286.5,402.5C 237.326,337.481 177.993,283.981 108.5,242C 76.2891,223.061 42.2891,208.228 6.5,197.5C 10.2732,181.841 15.6066,166.841 22.5,152.5 Z"/></g>
<g><path style="opacity:0.994" fill="#98c347" d="M -0.5,247.5 C 27.5749,250.199 54.2415,257.532 79.5,269.5C 76.4089,273.413 74.7422,277.913 74.5,283C 76.3233,296.458 79.3233,309.625 83.5,322.5C 70.3647,318.289 57.0313,314.789 43.5,312C 30.5167,310.221 17.5167,310.054 4.5,311.5C 2.36761,301.905 0.70094,292.238 -0.5,282.5C -0.5,270.833 -0.5,259.167 -0.5,247.5 Z"/></g>
<g><path style="opacity:1" fill="#fefefe" d="M 117.5,289.5 C 131.281,345.449 165.615,382.283 220.5,400C 227.444,401.822 234.444,403.322 241.5,404.5C 256.751,406.24 271.751,405.573 286.5,402.5C 300.066,400.534 312.733,396.201 324.5,389.5C 336.206,384.449 346.54,377.449 355.5,368.5C 359.086,366.42 362.253,363.754 365,360.5C 369.546,355.623 373.713,350.456 377.5,345C 363.833,344.667 350.167,344.333 336.5,344C 326.517,340.895 321.183,334.062 320.5,323.5C 321.518,311.149 328.184,304.482 340.5,303.5C 359.833,303.5 379.167,303.5 398.5,303.5C 408.506,303.334 418.506,303.5 428.5,304C 440.579,308.644 445.579,317.477 443.5,330.5C 443.5,347.833 443.5,365.167 443.5,382.5C 443.903,393.231 443.403,403.898 442,414.5C 436.119,425.189 427.286,428.689 415.5,425C 408.903,422.333 404.737,417.5 403,410.5C 402.667,400.5 402.333,390.5 402,380.5C 387.707,397.308 371.207,411.308 352.5,422.5C 340.089,429.203 327.089,434.537 313.5,438.5C 298.545,443.104 283.211,445.771 267.5,446.5C 246.054,447.189 225.054,444.523 204.5,438.5C 145.828,418.825 105.494,380.158 83.5,322.5C 79.3233,309.625 76.3233,296.458 74.5,283C 74.7422,277.913 76.4089,273.413 79.5,269.5C 87.9367,261.688 97.27,260.522 107.5,266C 114.21,272.312 117.544,280.146 117.5,289.5 Z"/></g>
<g><path style="opacity:1" fill="#9ac347" d="M 117.5,289.5 C 167.128,318.791 208.461,357.124 241.5,404.5C 234.444,403.322 227.444,401.822 220.5,400C 165.615,382.283 131.281,345.449 117.5,289.5 Z"/></g>
<g><path style="opacity:0.993" fill="#92c046" d="M 83.5,322.5 C 105.494,380.158 145.828,418.825 204.5,438.5C 216.095,463.603 221.428,489.937 220.5,517.5C 195.114,514.369 171.114,507.035 148.5,495.5C 152.775,478.079 152.275,460.746 147,443.5C 130.636,400.312 99.469,375.978 53.5,370.5C 44.5041,372.667 35.5041,374.667 26.5,376.5C 15.9791,355.938 8.6458,334.271 4.5,311.5C 17.5167,310.054 30.5167,310.221 43.5,312C 57.0313,314.789 70.3647,318.289 83.5,322.5 Z"/></g>
<g><path style="opacity:0.988" fill="#b8cf4b" d="M 443.5,330.5 C 462.252,340.875 481.586,350.208 501.5,358.5C 495.058,374.72 487.058,390.053 477.5,404.5C 465.897,397.561 454.564,390.227 443.5,382.5C 443.5,365.167 443.5,347.833 443.5,330.5 Z"/></g>
<g><path style="opacity:0.985" fill="#8dbe45" d="M 148.5,495.5 C 94.0229,470.023 53.3562,430.357 26.5,376.5C 35.5041,374.667 44.5041,372.667 53.5,370.5C 99.469,375.978 130.636,400.312 147,443.5C 152.275,460.746 152.775,478.079 148.5,495.5 Z"/></g>
<g><path style="opacity:0.99" fill="#adcb49" d="M 443.5,382.5 C 454.564,390.227 465.897,397.561 477.5,404.5C 456.292,437.044 428.959,463.044 395.5,482.5C 382.718,461.385 368.385,441.385 352.5,422.5C 371.207,411.308 387.707,397.308 402,380.5C 402.333,390.5 402.667,400.5 403,410.5C 404.737,417.5 408.903,422.333 415.5,425C 427.286,428.689 436.119,425.189 442,414.5C 443.403,403.898 443.903,393.231 443.5,382.5 Z"/></g>
<g><path style="opacity:0.992" fill="#a5c848" d="M 352.5,422.5 C 368.385,441.385 382.718,461.385 395.5,482.5C 380.594,492.285 364.594,499.952 347.5,505.5C 337.462,482.423 326.129,460.09 313.5,438.5C 327.089,434.537 340.089,429.203 352.5,422.5 Z"/></g>
<g><path style="opacity:0.994" fill="#98c347" d="M 204.5,438.5 C 225.054,444.523 246.054,447.189 267.5,446.5C 279.423,469.27 287.756,493.27 292.5,518.5C 289.167,519.167 285.833,519.833 282.5,520.5C 267.5,520.5 252.5,520.5 237.5,520.5C 231.804,519.697 226.137,518.697 220.5,517.5C 221.428,489.937 216.095,463.603 204.5,438.5 Z"/></g>
<g><path style="opacity:0.992" fill="#9fc548" d="M 313.5,438.5 C 326.129,460.09 337.462,482.423 347.5,505.5C 329.9,512.482 311.566,516.815 292.5,518.5C 287.756,493.27 279.423,469.27 267.5,446.5C 283.211,445.771 298.545,443.104 313.5,438.5 Z"/></g>
</svg>
