<?xml version="1.0" encoding="UTF-8"?> <!-- Generator: Adobe Illustrator 25.0.0, SVG Export Plug-In . SVG Version: 6.00 Build 0) --> <svg xmlns="http://www.w3.org/2000/svg" xmlns:xlink="http://www.w3.org/1999/xlink" version="1.1" id="Laag_1" x="0px" y="0px" viewBox="0 0 136.9 70" style="enable-background:new 0 0 136.9 70;" xml:space="preserve"> <style type="text/css"> .st0{fill:url(#SVGID_1_);} .st1{fill:url(#SVGID_2_);} .st2{fill:url(#SVGID_3_);} </style> <g> <radialGradient id="SVGID_1_" cx="68.4061" cy="517.9775" r="88.0674" gradientTransform="matrix(1 0 0 1 0 -420.0953)" gradientUnits="userSpaceOnUse"> <stop offset="0.4297" style="stop-color:#0071B7"></stop> <stop offset="0.4354" style="stop-color:#0C77AF"></stop> <stop offset="1" style="stop-color:#D4DB21"></stop> </radialGradient> <path class="st0" d="M68.4,52.3c12,0,16.2-9.7,16.2-21.6C84.7,12.6,68.4,0,68.4,0S52.2,12.6,52.2,30.7 C52.2,42.6,56.5,52.3,68.4,52.3z"></path> <radialGradient id="SVGID_2_" cx="68.4061" cy="517.9775" r="88.0674" gradientTransform="matrix(1 0 0 1 0 -420.0953)" gradientUnits="userSpaceOnUse"> <stop offset="0.4297" style="stop-color:#0071B7"></stop> <stop offset="0.4354" style="stop-color:#0C77AF"></stop> <stop offset="1" style="stop-color:#D4DB21"></stop> </radialGradient> <path class="st1" d="M37.2,65.3c8.5-8.5,4.6-18.3-3.8-26.8C20.6,25.7,0.2,28.3,0.2,28.3s-2.6,20.4,10.2,33.2 C18.9,69.9,28.7,73.7,37.2,65.3z"></path> <radialGradient id="SVGID_3_" cx="68.4061" cy="517.9775" r="88.0674" gradientTransform="matrix(1 0 0 1 0 -420.0953)" gradientUnits="userSpaceOnUse"> <stop offset="0.4297" style="stop-color:#0071B7"></stop> <stop offset="0.4354" style="stop-color:#0C77AF"></stop> <stop offset="1" style="stop-color:#D4DB21"></stop> </radialGradient> <path class="st2" d="M99.7,65.3c8.5,8.5,18.3,4.6,26.8-3.8c12.8-12.8,10.2-33.2,10.2-33.2s-20.4-2.6-33.2,10.2 C95.1,46.9,91.2,56.8,99.7,65.3z"></path> </g> </svg> 