<?xml version="1.0" encoding="UTF-8"?> <!-- Generator: Adobe Illustrator 25.1.0, SVG Export Plug-In . SVG Version: 6.00 Build 0) --> <svg xmlns="http://www.w3.org/2000/svg" xmlns:xlink="http://www.w3.org/1999/xlink" version="1.1" id="Laag_1" x="0px" y="0px" viewBox="0 0 551 145.4" style="enable-background:new 0 0 551 145.4;" xml:space="preserve"> <style type="text/css"> .st0{fill:#405631;} .st1{fill:#0071BC;} .st2{fill:url(#SVGID_1_);} .st3{fill:url(#SVGID_2_);} .st4{fill:url(#SVGID_3_);} .st5{fill:url(#SVGID_4_);} .st6{fill:url(#SVGID_5_);} .st7{fill:url(#SVGID_6_);} .st8{fill:url(#SVGID_7_);} .st9{fill:url(#SVGID_8_);} .st10{fill:url(#SVGID_9_);} .st11{fill:url(#SVGID_10_);} .st12{fill:url(#SVGID_11_);} .st13{fill:url(#SVGID_12_);} .st14{fill:url(#SVGID_13_);} .st15{fill:url(#SVGID_14_);} .st16{fill:url(#SVGID_15_);} .st17{fill:url(#SVGID_16_);} .st18{fill:url(#SVGID_17_);} .st19{fill:url(#SVGID_18_);} .st20{fill:url(#SVGID_19_);} .st21{fill:url(#SVGID_20_);} .st22{fill:url(#SVGID_21_);} .st23{fill:url(#SVGID_22_);} .st24{fill:url(#SVGID_23_);} .st25{fill:url(#SVGID_24_);} .st26{fill:url(#SVGID_25_);} .st27{fill:url(#SVGID_26_);} .st28{fill:url(#SVGID_27_);} .st29{fill:url(#SVGID_28_);} .st30{fill:url(#SVGID_29_);} .st31{fill:url(#SVGID_30_);} .st32{fill:url(#SVGID_31_);} .st33{fill:url(#SVGID_32_);} .st34{fill:url(#SVGID_33_);} .st35{fill:url(#SVGID_34_);} .st36{fill:url(#SVGID_35_);} .st37{fill:url(#SVGID_36_);} </style> <g> <path class="st0" d="M179.5,134v10.5H140c0.4-4,1.7-7.7,3.8-11.2s6.4-8.2,12.7-14.1c5.1-4.7,8.2-7.9,9.3-9.6 c1.5-2.3,2.3-4.6,2.3-6.9c0-2.5-0.7-4.4-2-5.8c-1.4-1.3-3.2-2-5.6-2c-2.4,0-4.2,0.7-5.6,2.1c-1.4,1.4-2.2,3.8-2.4,7.1l-11.2-1.1 c0.7-6.2,2.8-10.6,6.3-13.3c3.5-2.7,7.9-4,13.2-4c5.8,0,10.4,1.6,13.7,4.7c3.3,3.1,5,7,5,11.7c0,2.6-0.5,5.2-1.4,7.6 c-0.9,2.4-2.5,4.9-4.5,7.5c-1.4,1.7-3.8,4.2-7.4,7.5c-3.6,3.3-5.8,5.4-6.8,6.5c-0.9,1.1-1.7,2.1-2.3,3.1H179.5z"></path> <path class="st0" d="M189.6,85.7h23.5c4.6,0,8.1,0.2,10.4,0.6c2.3,0.4,4.3,1.2,6.1,2.4c1.8,1.2,3.3,2.9,4.5,4.9 c1.2,2,1.8,4.3,1.8,6.9c0,2.8-0.7,5.3-2.2,7.6c-1.5,2.3-3.5,4-6,5.2c3.6,1,6.3,2.8,8.3,5.3c1.9,2.5,2.9,5.5,2.9,8.9 c0,2.7-0.6,5.3-1.9,7.8c-1.2,2.5-2.9,4.5-5.1,6.1c-2.2,1.5-4.8,2.4-8,2.8c-2,0.2-6.7,0.3-14.3,0.4h-20V85.7z M201.5,95.4V109h7.8 c4.6,0,7.5-0.1,8.6-0.2c2-0.2,3.6-0.9,4.8-2.1c1.2-1.2,1.7-2.7,1.7-4.6c0-1.8-0.5-3.3-1.5-4.4c-1-1.1-2.5-1.8-4.5-2.1 c-1.2-0.1-4.6-0.2-10.1-0.2H201.5z M201.5,118.8v15.7h11c4.3,0,7-0.1,8.1-0.4c1.8-0.3,3.2-1.1,4.3-2.3c1.1-1.2,1.7-2.9,1.7-5 c0-1.8-0.4-3.3-1.3-4.5c-0.9-1.2-2.1-2.1-3.7-2.7c-1.6-0.6-5.1-0.8-10.5-0.8H201.5z"></path> <path class="st0" d="M299,122.8v-9.9h25.6v23.4c-2.5,2.4-6.1,4.5-10.8,6.4c-4.7,1.8-9.5,2.7-14.3,2.7c-6.1,0-11.5-1.3-16.1-3.9 c-4.6-2.6-8-6.3-10.3-11.1c-2.3-4.8-3.4-10-3.4-15.6c0-6.1,1.3-11.6,3.8-16.3c2.6-4.8,6.3-8.4,11.3-10.9c3.8-1.9,8.5-2.9,14.1-2.9 c7.3,0,13,1.5,17.1,4.6c4.1,3.1,6.7,7.3,7.9,12.7l-11.8,2.2c-0.8-2.9-2.4-5.2-4.7-6.8c-2.3-1.7-5.1-2.5-8.6-2.5 c-5.2,0-9.3,1.6-12.4,4.9c-3.1,3.3-4.6,8.2-4.6,14.6c0,7,1.5,12.2,4.6,15.7c3.1,3.5,7.2,5.2,12.2,5.2c2.5,0,5-0.5,7.5-1.5 c2.5-1,4.6-2.2,6.4-3.5v-7.5H299z"></path> <path class="st0" d="M335.6,144.4V85.7h25c6.3,0,10.8,0.5,13.7,1.6c2.8,1.1,5.1,2.9,6.8,5.6c1.7,2.7,2.6,5.8,2.6,9.3 c0,4.4-1.3,8-3.9,10.9c-2.6,2.9-6.5,4.7-11.6,5.4c2.6,1.5,4.7,3.1,6.4,4.9c1.7,1.8,3.9,5,6.8,9.5l7.2,11.5h-14.2l-8.6-12.8 c-3-4.6-5.1-7.4-6.3-8.6c-1.1-1.2-2.3-2-3.6-2.4c-1.3-0.4-3.2-0.7-6-0.7h-2.4v24.5H335.6z M347.4,110.5h8.8c5.7,0,9.2-0.2,10.7-0.7 c1.4-0.5,2.5-1.3,3.3-2.5c0.8-1.2,1.2-2.6,1.2-4.4c0-2-0.5-3.6-1.6-4.8c-1.1-1.2-2.5-2-4.5-2.3c-1-0.1-3.8-0.2-8.7-0.2h-9.3V110.5z "></path> <path class="st0" d="M394.8,144.4V85.7h43.6v9.9h-31.7v13h29.5v9.9h-29.5v16h32.8v9.9H394.8z"></path> <path class="st0" d="M449.5,144.4V85.7h43.6v9.9h-31.7v13h29.5v9.9h-29.5v16h32.8v9.9H449.5z"></path> <path class="st0" d="M504.4,144.4V85.7h11.5l24,39.2V85.7h11v58.7h-11.9l-23.7-38.3v38.3H504.4z"></path> </g> <g> <circle class="st1" cx="64.1" cy="64.1" r="5.6"></circle> <g> <radialGradient id="SVGID_1_" cx="64.2072" cy="63.9396" r="59.663" gradientUnits="userSpaceOnUse"> <stop offset="0.5374" style="stop-color:#8CC63F"></stop> <stop offset="0.7144" style="stop-color:#8CC63F"></stop> <stop offset="1" style="stop-color:#405631"></stop> </radialGradient> <path class="st2" d="M64.1,13.5c3.1,0,4.2-2.5,4.2-5.6c0-4.7-4.2-7.9-4.2-7.9s-4.2,3.3-4.2,7.9C59.9,11,61,13.5,64.1,13.5z"></path> <radialGradient id="SVGID_2_" cx="64.2072" cy="63.9396" r="59.663" gradientUnits="userSpaceOnUse"> <stop offset="0.5374" style="stop-color:#8CC63F"></stop> <stop offset="0.7144" style="stop-color:#8CC63F"></stop> <stop offset="1" style="stop-color:#405631"></stop> </radialGradient> <path class="st3" d="M44.7,17.4c2.9-1.2,2.9-3.9,1.7-6.8c-1.8-4.3-6.9-5.7-6.9-5.7s-2.6,4.6-0.8,8.9 C39.9,16.7,41.9,18.5,44.7,17.4z"></path> <radialGradient id="SVGID_3_" cx="64.2072" cy="63.9396" r="59.663" gradientUnits="userSpaceOnUse"> <stop offset="0.5374" style="stop-color:#8CC63F"></stop> <stop offset="0.7144" style="stop-color:#8CC63F"></stop> <stop offset="1" style="stop-color:#405631"></stop> </radialGradient> <path class="st4" d="M28.3,28.3c2.2-2.2,1.2-4.7-1-6.9c-3.3-3.3-8.6-2.6-8.6-2.6s-0.7,5.3,2.6,8.6C23.6,29.5,26.1,30.5,28.3,28.3z "></path> <radialGradient id="SVGID_4_" cx="64.2072" cy="63.9396" r="59.663" gradientUnits="userSpaceOnUse"> <stop offset="0.5374" style="stop-color:#8CC63F"></stop> <stop offset="0.7144" style="stop-color:#8CC63F"></stop> <stop offset="1" style="stop-color:#405631"></stop> </radialGradient> <path class="st5" d="M17.4,44.7c1.2-2.9-0.7-4.8-3.6-6c-4.3-1.8-8.9,0.8-8.9,0.8s1.4,5.1,5.7,6.9C13.4,47.6,16.2,47.6,17.4,44.7z"></path> <radialGradient id="SVGID_5_" cx="64.2072" cy="63.9396" r="59.663" gradientUnits="userSpaceOnUse"> <stop offset="0.5374" style="stop-color:#8CC63F"></stop> <stop offset="0.7144" style="stop-color:#8CC63F"></stop> <stop offset="1" style="stop-color:#405631"></stop> </radialGradient> <path class="st6" d="M13.5,64.1c0-3.1-2.5-4.2-5.6-4.2c-4.7,0-7.9,4.2-7.9,4.2s3.3,4.2,7.9,4.2C11,68.3,13.5,67.1,13.5,64.1z"></path> <radialGradient id="SVGID_6_" cx="64.2072" cy="63.9396" r="59.663" gradientUnits="userSpaceOnUse"> <stop offset="0.5374" style="stop-color:#8CC63F"></stop> <stop offset="0.7144" style="stop-color:#8CC63F"></stop> <stop offset="1" style="stop-color:#405631"></stop> </radialGradient> <path class="st7" d="M17.4,83.4c-1.2-2.9-3.9-2.9-6.8-1.7c-4.3,1.8-5.7,6.9-5.7,6.9s4.6,2.6,8.9,0.8 C16.7,88.2,18.5,86.3,17.4,83.4z"></path> <radialGradient id="SVGID_7_" cx="64.2072" cy="63.9396" r="59.663" gradientUnits="userSpaceOnUse"> <stop offset="0.5374" style="stop-color:#8CC63F"></stop> <stop offset="0.7144" style="stop-color:#8CC63F"></stop> <stop offset="1" style="stop-color:#405631"></stop> </radialGradient> <path class="st8" d="M28.3,99.8c-2.2-2.2-4.7-1.2-6.9,1c-3.3,3.3-2.6,8.6-2.6,8.6s5.3,0.7,8.6-2.6C29.5,104.5,30.5,102,28.3,99.8z "></path> <radialGradient id="SVGID_8_" cx="64.2072" cy="63.9396" r="59.663" gradientUnits="userSpaceOnUse"> <stop offset="0.5374" style="stop-color:#8CC63F"></stop> <stop offset="0.7144" style="stop-color:#8CC63F"></stop> <stop offset="1" style="stop-color:#405631"></stop> </radialGradient> <path class="st9" d="M44.7,110.8c-2.9-1.2-4.8,0.7-6,3.6c-1.8,4.3,0.8,8.9,0.8,8.9s5.1-1.4,6.9-5.7 C47.6,114.7,47.6,111.9,44.7,110.8z"></path> <radialGradient id="SVGID_9_" cx="64.2072" cy="63.9396" r="59.663" gradientUnits="userSpaceOnUse"> <stop offset="0.5374" style="stop-color:#8CC63F"></stop> <stop offset="0.7144" style="stop-color:#8CC63F"></stop> <stop offset="1" style="stop-color:#405631"></stop> </radialGradient> <path class="st10" d="M83.4,110.8c-2.9,1.2-2.9,3.9-1.7,6.8c1.8,4.3,6.9,5.7,6.9,5.7s2.6-4.6,0.8-8.9 C88.2,111.5,86.3,109.6,83.4,110.8z"></path> <radialGradient id="SVGID_10_" cx="64.2072" cy="63.9396" r="59.663" gradientUnits="userSpaceOnUse"> <stop offset="0.5374" style="stop-color:#8CC63F"></stop> <stop offset="0.7144" style="stop-color:#8CC63F"></stop> <stop offset="1" style="stop-color:#405631"></stop> </radialGradient> <path class="st11" d="M99.8,99.8c-2.2,2.2-1.2,4.7,1,6.9c3.3,3.3,8.6,2.6,8.6,2.6s0.7-5.3-2.6-8.6C104.5,98.6,102,97.6,99.8,99.8z "></path> <radialGradient id="SVGID_11_" cx="64.2072" cy="63.9396" r="59.663" gradientUnits="userSpaceOnUse"> <stop offset="0.5374" style="stop-color:#8CC63F"></stop> <stop offset="0.7144" style="stop-color:#8CC63F"></stop> <stop offset="1" style="stop-color:#405631"></stop> </radialGradient> <path class="st12" d="M110.8,83.4c-1.2,2.9,0.7,4.8,3.6,6c4.3,1.8,8.9-0.8,8.9-0.8s-1.4-5.1-5.7-6.9 C114.7,80.5,111.9,80.5,110.8,83.4z"></path> <radialGradient id="SVGID_12_" cx="64.2072" cy="63.9396" r="59.663" gradientUnits="userSpaceOnUse"> <stop offset="0.5374" style="stop-color:#8CC63F"></stop> <stop offset="0.7144" style="stop-color:#8CC63F"></stop> <stop offset="1" style="stop-color:#405631"></stop> </radialGradient> <path class="st13" d="M114.6,64.1c0,3.1,2.5,4.2,5.6,4.2c4.7,0,7.9-4.2,7.9-4.2s-3.3-4.2-7.9-4.2C117.1,59.9,114.6,61,114.6,64.1z "></path> <radialGradient id="SVGID_13_" cx="64.2072" cy="63.9396" r="59.663" gradientUnits="userSpaceOnUse"> <stop offset="0.5374" style="stop-color:#8CC63F"></stop> <stop offset="0.7144" style="stop-color:#8CC63F"></stop> <stop offset="1" style="stop-color:#405631"></stop> </radialGradient> <path class="st14" d="M110.8,44.7c1.2,2.9,3.9,2.9,6.8,1.7c4.3-1.8,5.7-6.9,5.7-6.9s-4.6-2.6-8.9-0.8 C111.5,39.9,109.6,41.9,110.8,44.7z"></path> <radialGradient id="SVGID_14_" cx="64.2072" cy="63.9396" r="59.663" gradientUnits="userSpaceOnUse"> <stop offset="0.5374" style="stop-color:#8CC63F"></stop> <stop offset="0.7144" style="stop-color:#8CC63F"></stop> <stop offset="1" style="stop-color:#405631"></stop> </radialGradient> <path class="st15" d="M99.8,28.3c2.2,2.2,4.7,1.2,6.9-1c3.3-3.3,2.6-8.6,2.6-8.6s-5.3-0.7-8.6,2.6C98.6,23.6,97.6,26.1,99.8,28.3z "></path> <radialGradient id="SVGID_15_" cx="64.2072" cy="63.9396" r="59.663" gradientUnits="userSpaceOnUse"> <stop offset="0.5374" style="stop-color:#8CC63F"></stop> <stop offset="0.7144" style="stop-color:#8CC63F"></stop> <stop offset="1" style="stop-color:#405631"></stop> </radialGradient> <path class="st16" d="M83.4,17.4c2.9,1.2,4.8-0.7,6-3.6c1.8-4.3-0.8-8.9-0.8-8.9s-5.1,1.4-6.9,5.7C80.5,13.4,80.5,16.2,83.4,17.4z "></path> </g> <g> <radialGradient id="SVGID_16_" cx="64.0486" cy="64.2568" r="42.5041" gradientUnits="userSpaceOnUse"> <stop offset="0.6523" style="stop-color:#D9E021"></stop> <stop offset="1" style="stop-color:#8CC63F"></stop> </radialGradient> <path class="st17" d="M70.9,33.8c3,0.7,4.6-1.5,5.3-4.5c1-4.5-2.3-8.7-2.3-8.7s-4.8,2.3-5.8,6.8C67.4,30.5,67.9,33.2,70.9,33.8z"></path> <radialGradient id="SVGID_17_" cx="64.0486" cy="64.2568" r="42.5041" gradientUnits="userSpaceOnUse"> <stop offset="0.6523" style="stop-color:#D9E021"></stop> <stop offset="1" style="stop-color:#8CC63F"></stop> </radialGradient> <path class="st18" d="M58.8,33.5c3-0.5,3.7-3.2,3.2-6.2c-0.8-4.6-5.5-7.1-5.5-7.1s-3.6,3.9-2.8,8.5C54.3,31.8,55.8,34,58.8,33.5z"></path> <radialGradient id="SVGID_18_" cx="64.0486" cy="64.2568" r="42.5041" gradientUnits="userSpaceOnUse"> <stop offset="0.6523" style="stop-color:#D9E021"></stop> <stop offset="1" style="stop-color:#8CC63F"></stop> </radialGradient> <path class="st19" d="M47.5,37.8c2.6-1.6,2.2-4.4,0.6-7c-2.5-3.9-7.8-4.5-7.8-4.5s-1.8,5,0.7,8.9C42.7,38,44.9,39.5,47.5,37.8z"></path> <radialGradient id="SVGID_19_" cx="64.0486" cy="64.2568" r="42.5041" gradientUnits="userSpaceOnUse"> <stop offset="0.6523" style="stop-color:#D9E021"></stop> <stop offset="1" style="stop-color:#8CC63F"></stop> </radialGradient> <path class="st20" d="M38.8,46.2c1.8-2.5,0.4-4.9-2.1-6.7c-3.8-2.7-8.9-1.2-8.9-1.2s0.2,5.3,4,8C34.3,48.1,37,48.7,38.8,46.2z"></path> <radialGradient id="SVGID_20_" cx="64.0486" cy="64.2568" r="42.5041" gradientUnits="userSpaceOnUse"> <stop offset="0.6523" style="stop-color:#D9E021"></stop> <stop offset="1" style="stop-color:#8CC63F"></stop> </radialGradient> <path class="st21" d="M33.8,57.2c0.7-3-1.5-4.6-4.5-5.3c-4.5-1-8.7,2.3-8.7,2.3s2.3,4.8,6.8,5.8C30.5,60.7,33.2,60.2,33.8,57.2z"></path> <radialGradient id="SVGID_21_" cx="64.0486" cy="64.2568" r="42.5041" gradientUnits="userSpaceOnUse"> <stop offset="0.6523" style="stop-color:#D9E021"></stop> <stop offset="1" style="stop-color:#8CC63F"></stop> </radialGradient> <path class="st22" d="M33.5,69.3c-0.5-3-3.2-3.7-6.2-3.2c-4.6,0.8-7.1,5.5-7.1,5.5s3.9,3.6,8.5,2.8C31.8,73.8,34,72.3,33.5,69.3z"></path> <radialGradient id="SVGID_22_" cx="64.0486" cy="64.2568" r="42.5041" gradientUnits="userSpaceOnUse"> <stop offset="0.6523" style="stop-color:#D9E021"></stop> <stop offset="1" style="stop-color:#8CC63F"></stop> </radialGradient> <path class="st23" d="M37.8,80.6c-1.6-2.6-4.4-2.2-7-0.6c-3.9,2.5-4.5,7.8-4.5,7.8s5,1.8,8.9-0.7C38,85.5,39.5,83.2,37.8,80.6z"></path> <radialGradient id="SVGID_23_" cx="64.0486" cy="64.2568" r="42.5041" gradientUnits="userSpaceOnUse"> <stop offset="0.6523" style="stop-color:#D9E021"></stop> <stop offset="1" style="stop-color:#8CC63F"></stop> </radialGradient> <path class="st24" d="M46.2,89.4c-2.5-1.8-4.9-0.4-6.7,2.1c-2.7,3.8-1.2,8.9-1.2,8.9s5.3-0.2,8-4C48.1,93.8,48.7,91.1,46.2,89.4z"></path> <radialGradient id="SVGID_24_" cx="64.0486" cy="64.2568" r="42.5041" gradientUnits="userSpaceOnUse"> <stop offset="0.6523" style="stop-color:#D9E021"></stop> <stop offset="1" style="stop-color:#8CC63F"></stop> </radialGradient> <path class="st25" d="M80.6,90.3c-2.6,1.6-2.2,4.4-0.6,7c2.5,3.9,7.8,4.5,7.8,4.5s1.8-5-0.7-8.9C85.5,90.1,83.2,88.6,80.6,90.3z"></path> <radialGradient id="SVGID_25_" cx="64.0486" cy="64.2568" r="42.5041" gradientUnits="userSpaceOnUse"> <stop offset="0.6523" style="stop-color:#D9E021"></stop> <stop offset="1" style="stop-color:#8CC63F"></stop> </radialGradient> <path class="st26" d="M89.4,82c-1.8,2.5-0.4,4.9,2.1,6.7c3.8,2.7,8.9,1.2,8.9,1.2s-0.2-5.3-4-8C93.8,80,91.1,79.4,89.4,82z"></path> <radialGradient id="SVGID_26_" cx="64.0486" cy="64.2568" r="42.5041" gradientUnits="userSpaceOnUse"> <stop offset="0.6523" style="stop-color:#D9E021"></stop> <stop offset="1" style="stop-color:#8CC63F"></stop> </radialGradient> <path class="st27" d="M94.3,70.9c-0.7,3,1.5,4.6,4.5,5.3c4.5,1,8.7-2.3,8.7-2.3s-2.3-4.8-6.8-5.8C97.6,67.4,95,67.9,94.3,70.9z"></path> <radialGradient id="SVGID_27_" cx="64.0486" cy="64.2568" r="42.5041" gradientUnits="userSpaceOnUse"> <stop offset="0.6523" style="stop-color:#D9E021"></stop> <stop offset="1" style="stop-color:#8CC63F"></stop> </radialGradient> <path class="st28" d="M94.6,58.8c0.5,3,3.2,3.7,6.2,3.2c4.6-0.8,7.1-5.5,7.1-5.5s-3.9-3.6-8.5-2.8C96.4,54.3,94.1,55.8,94.6,58.8z "></path> <radialGradient id="SVGID_28_" cx="64.0486" cy="64.2568" r="42.5041" gradientUnits="userSpaceOnUse"> <stop offset="0.6523" style="stop-color:#D9E021"></stop> <stop offset="1" style="stop-color:#8CC63F"></stop> </radialGradient> <path class="st29" d="M90.3,47.5c1.6,2.6,4.4,2.2,7,0.6c3.9-2.5,4.5-7.8,4.5-7.8s-5-1.8-8.9,0.7C90.1,42.7,88.6,44.9,90.3,47.5z"></path> <radialGradient id="SVGID_29_" cx="64.0486" cy="64.2568" r="42.5041" gradientUnits="userSpaceOnUse"> <stop offset="0.6523" style="stop-color:#D9E021"></stop> <stop offset="1" style="stop-color:#8CC63F"></stop> </radialGradient> <path class="st30" d="M82,38.8c2.5,1.8,4.9,0.4,6.7-2.1c2.7-3.8,1.2-8.9,1.2-8.9s-5.3,0.2-8,4C80,34.3,79.4,37,82,38.8z"></path> </g> <g> <radialGradient id="SVGID_30_" cx="64.0486" cy="64.4154" r="22.7464" gradientUnits="userSpaceOnUse"> <stop offset="0.4297" style="stop-color:#0071BC"></stop> <stop offset="0.4354" style="stop-color:#0C77B4"></stop> <stop offset="1" style="stop-color:#D9E021"></stop> </radialGradient> <path class="st31" d="M64.1,52.6c3.1,0,4.2-2.5,4.2-5.6c0-4.7-4.2-7.9-4.2-7.9s-4.2,3.3-4.2,7.9C59.9,50.1,61,52.6,64.1,52.6z"></path> <radialGradient id="SVGID_31_" cx="64.0486" cy="64.4154" r="22.7464" gradientUnits="userSpaceOnUse"> <stop offset="0.4297" style="stop-color:#0071BC"></stop> <stop offset="0.4354" style="stop-color:#0C77B4"></stop> <stop offset="1" style="stop-color:#D9E021"></stop> </radialGradient> <path class="st32" d="M56,56c2.2-2.2,1.2-4.7-1-6.9c-3.3-3.3-8.6-2.6-8.6-2.6s-0.7,5.3,2.6,8.6C51.3,57.2,53.8,58.2,56,56z"></path> <radialGradient id="SVGID_32_" cx="64.0486" cy="64.4154" r="22.7464" gradientUnits="userSpaceOnUse"> <stop offset="0.4297" style="stop-color:#0071BC"></stop> <stop offset="0.4354" style="stop-color:#0C77B4"></stop> <stop offset="1" style="stop-color:#D9E021"></stop> </radialGradient> <path class="st33" d="M52.6,64.1c0-3.1-2.5-4.2-5.6-4.2c-4.7,0-7.9,4.2-7.9,4.2s3.3,4.2,7.9,4.2C50.1,68.3,52.6,67.1,52.6,64.1z"></path> <radialGradient id="SVGID_33_" cx="64.0486" cy="64.4154" r="22.7464" gradientUnits="userSpaceOnUse"> <stop offset="0.4297" style="stop-color:#0071BC"></stop> <stop offset="0.4354" style="stop-color:#0C77B4"></stop> <stop offset="1" style="stop-color:#D9E021"></stop> </radialGradient> <path class="st34" d="M56,72.1c-2.2-2.2-4.7-1.2-6.9,1c-3.3,3.3-2.6,8.6-2.6,8.6s5.3,0.7,8.6-2.6C57.2,76.9,58.2,74.3,56,72.1z"></path> <radialGradient id="SVGID_34_" cx="64.0486" cy="64.4154" r="22.7464" gradientUnits="userSpaceOnUse"> <stop offset="0.4297" style="stop-color:#0071BC"></stop> <stop offset="0.4354" style="stop-color:#0C77B4"></stop> <stop offset="1" style="stop-color:#D9E021"></stop> </radialGradient> <path class="st35" d="M72.1,72.1c-2.2,2.2-1.2,4.7,1,6.9c3.3,3.3,8.6,2.6,8.6,2.6s0.7-5.3-2.6-8.6C76.9,70.9,74.3,69.9,72.1,72.1z "></path> <radialGradient id="SVGID_35_" cx="64.0486" cy="64.4154" r="22.7464" gradientUnits="userSpaceOnUse"> <stop offset="0.4297" style="stop-color:#0071BC"></stop> <stop offset="0.4354" style="stop-color:#0C77B4"></stop> <stop offset="1" style="stop-color:#D9E021"></stop> </radialGradient> <path class="st36" d="M75.5,64.1c0,3.1,2.5,4.2,5.6,4.2c4.7,0,7.9-4.2,7.9-4.2s-3.3-4.2-7.9-4.2C78,59.9,75.5,61,75.5,64.1z"></path> <radialGradient id="SVGID_36_" cx="64.0486" cy="64.4154" r="22.7464" gradientUnits="userSpaceOnUse"> <stop offset="0.4297" style="stop-color:#0071BC"></stop> <stop offset="0.4354" style="stop-color:#0C77B4"></stop> <stop offset="1" style="stop-color:#D9E021"></stop> </radialGradient> <path class="st37" d="M72.1,56c2.2,2.2,4.7,1.2,6.9-1c3.3-3.3,2.6-8.6,2.6-8.6s-5.3-0.7-8.6,2.6C70.9,51.3,69.9,53.8,72.1,56z"></path> </g> </g> <g> <path class="st0" d="M64.1,145.4c-2.9,0-5.3-1.2-5.3-2.6V80.2c0-1.5,2.4-2.6,5.3-2.6c2.9,0,5.3,1.2,5.3,2.6v62.6 C69.3,144.2,67,145.4,64.1,145.4z"></path> </g> </svg> 