<?xml version="1.0" encoding="UTF-8"?> <svg xmlns="http://www.w3.org/2000/svg" xmlns:cc="http://creativecommons.org/ns#" xmlns:dc="http://purl.org/dc/elements/1.1/" xmlns:rdf="http://www.w3.org/1999/02/22-rdf-syntax-ns#" width="91.664mm" height="91.63mm" version="1.1" viewBox="0 0 91.664 91.63"><defs><clipPath id="clipPath7843"><path d="M 0,260.159 H 260.159 V 0 H 0 Z"></path></clipPath></defs><metadata></metadata><g transform="translate(-63.781 -159.05)"><g transform="matrix(.35278 0 0 -.35278 63.781 250.68)"><g clip-path="url(#clipPath7843)"><g transform="translate(138.81 87.258)"><path d="m0 0c5.563 3.533 10.099 7.933 13.594 13.137 2.716 4.041 4.805 8.573 6.216 13.561 9.91 34.438-14.111 80.114-16.03 83.721-0.139-0.257-0.296-0.539-0.413-0.811-0.117-0.273-0.235-0.545-0.375-0.802-4.541-9.454-7.983-19.083-10.33-28.746-1.009-3.853-1.857-7.71-2.487-11.537-0.186-0.963-0.334-1.918-0.459-2.888-0.181-1.248-0.339-2.511-0.474-3.79-0.02-0.128-0.04-0.255-0.043-0.358-0.116-1.152-0.248-2.327-0.302-3.485-0.066-0.588-0.093-1.167-0.12-1.746-0.054-0.912-0.108-1.824-0.122-2.728-0.05-0.564-0.061-1.118-0.049-1.688-0.044-1.34-0.05-2.671-0.017-3.993 0.02-1.488 0.078-2.968 0.137-4.447-0.01-0.064 0.019-0.119 0.032-0.197 0.059-1.48 0.173-2.927 0.332-4.403 0.118-1.344 0.274-2.678 0.452-4.028 0.074-0.576 0.17-1.168 0.273-1.798 0.108-0.915 0.278-1.838 0.455-2.799 0.067-0.537 0.167-1.026 0.282-1.489 0.17-1.168 0.405-2.239 0.661-3.326 0.987-4.456 2.23-8.873 3.785-13.218 0.035-0.095 0.055-0.213 0.112-0.323l0.088-0.164c0.303-0.87 0.628-1.757 0.954-2.642 0.149-0.416 0.297-0.832 0.461-1.224 0.065-0.148 0.114-0.321 0.178-0.471 0.087-0.164 0.158-0.351 0.23-0.54 0.554-1.426 1.148-2.843 1.797-4.228 0.21-0.422 0.381-0.853 0.591-1.275s0.381-0.853 0.591-1.275" fill="#fff"></path></g><g transform="translate(138.81 87.258)"><path d="m0 0c5.563 3.533 10.099 7.933 13.594 13.137 2.716 4.041 4.805 8.573 6.216 13.561 9.91 34.438-14.111 80.114-16.03 83.721-0.139-0.257-0.296-0.539-0.413-0.811-0.117-0.273-0.235-0.545-0.375-0.802-4.541-9.454-7.983-19.083-10.33-28.746-1.009-3.853-1.857-7.71-2.487-11.537-0.186-0.963-0.334-1.918-0.459-2.888-0.181-1.248-0.339-2.511-0.474-3.79-0.02-0.128-0.04-0.255-0.043-0.358-0.116-1.152-0.248-2.327-0.302-3.485-0.066-0.588-0.093-1.167-0.12-1.746-0.054-0.912-0.108-1.824-0.122-2.728-0.05-0.564-0.061-1.118-0.049-1.688-0.044-1.34-0.05-2.671-0.017-3.993 0.02-1.488 0.078-2.968 0.137-4.447-0.01-0.064 0.019-0.119 0.032-0.197 0.059-1.48 0.173-2.927 0.332-4.403 0.118-1.344 0.274-2.678 0.452-4.028 0.074-0.576 0.17-1.168 0.273-1.798 0.108-0.915 0.278-1.838 0.455-2.799 0.067-0.537 0.167-1.026 0.282-1.489 0.17-1.168 0.405-2.239 0.661-3.326 0.987-4.456 2.23-8.873 3.785-13.218 0.035-0.095 0.055-0.213 0.112-0.323l0.088-0.164c0.303-0.87 0.628-1.757 0.954-2.642 0.149-0.416 0.297-0.832 0.461-1.224 0.065-0.148 0.114-0.321 0.178-0.471 0.087-0.164 0.158-0.351 0.23-0.54 0.554-1.426 1.148-2.843 1.797-4.228 0.21-0.422 0.381-0.853 0.591-1.275s0.381-0.853 0.591-1.275z" fill="none" stroke="#fff" stroke-miterlimit="10" stroke-width="4"></path></g><g transform="translate(133.81 84.904)"><path d="m0 0c-0.317 0.582-0.62 1.187-0.923 1.791-0.303 0.605-0.59 1.233-0.892 1.838-10.947 23.054-13.721 48.792-8.748 74.004 1.735 8.756 4.378 17.411 7.959 25.911 0.635 1.56 1.349 3.134 2.062 4.708-11.142-11.728-32.235-51.097-25.737-80.223 3.066-13.803 11.908-23.224 26.279-28.029" fill="#fff"></path></g><g transform="translate(133.81 84.904)"><path d="m0 0c-0.317 0.582-0.62 1.187-0.923 1.791-0.303 0.605-0.59 1.233-0.892 1.838-10.947 23.054-13.721 48.792-8.748 74.004 1.735 8.756 4.378 17.411 7.959 25.911 0.635 1.56 1.349 3.134 2.062 4.708-11.142-11.728-32.235-51.097-25.737-80.223 3.066-13.803 11.908-23.224 26.279-28.029z" fill="none" stroke="#fff" stroke-miterlimit="10" stroke-width="4"></path></g><g transform="translate(151.36 61.64)"><path d="m0 0c-8.633 7.823-13.823 16.715-15.565 26.334" fill="none" stroke="#fff" stroke-linecap="round" stroke-linejoin="round" stroke-miterlimit="10" stroke-width="4"></path></g><g transform="translate(31.169 150.46)"><path d="m0 0 64.157-1.246" fill="none" stroke="#fff" stroke-linecap="round" stroke-miterlimit="10" stroke-width="6"></path></g><g transform="translate(60.704 123.04)"><path d="m0 0 33.85-0.657" fill="none" stroke="#fff" stroke-linecap="round" stroke-miterlimit="10" stroke-width="6"></path></g><g transform="translate(205.82 160.41)"><path d="m0 0c-0.335-0.232-2.647-1.777-5.372-0.977-2.762 0.812-4.282 3.546-4.396 5.861-0.179 3.672 3.194 6.006 4.396 6.838 0.255 0.176 5.238 3.463 10.745 1.465 5.898-2.141 9.114-9.281 7.325-15.141-1.919-6.287-8.712-8.186-9.279-8.335h-39.56" fill="none" stroke="#fff" stroke-linecap="round" stroke-miterlimit="10" stroke-width="6"></path></g><g transform="translate(212.65 109.04)"><path d="m0 0c-0.399 0.317-3.148 2.427-6.389 1.333-3.284-1.108-5.092-4.839-5.227-8-0.213-5.012 3.799-8.198 5.227-9.333 0.304-0.241 6.23-4.728 12.778-2 7.015 2.923 10.839 12.669 8.712 20.667-2.283 8.583-10.361 11.174-11.036 11.377h-47.044" fill="none" stroke="#fff" stroke-linecap="round" stroke-miterlimit="10" stroke-width="6"></path></g></g></g></g></svg> 