<?xml version="1.0" encoding="UTF-8"?> <svg xmlns="http://www.w3.org/2000/svg" xmlns:cc="http://creativecommons.org/ns#" xmlns:dc="http://purl.org/dc/elements/1.1/" xmlns:rdf="http://www.w3.org/1999/02/22-rdf-syntax-ns#" width="91.778mm" height="91.778mm" version="1.1" viewBox="0 0 91.778 91.778"><defs><clipPath id="clipPath25166"><path d="M 0,260.159 H 260.159 V 0 H 0 Z"></path></clipPath></defs><metadata></metadata><g transform="translate(-34.998 -75.819)"><g transform="matrix(.35278 0 0 -.35278 34.998 167.6)"><g clip-path="url(#clipPath25166)"><g transform="translate(191.27 58.533)"><path d="m0 0h-37.497v17.301c4.93 1.995 8.435 6.832 8.435 12.455v55.041c0 7.389-6.046 13.435-13.435 13.435-7.39 0-13.436-6.046-13.436-13.435v-55.041c0-5.623 3.506-10.46 8.436-12.455v-17.301h-44.085v22.69c16.351 2.418 28.899 16.507 28.899 33.53 0 7.764-2.616 14.914-7.006 20.629 0.615 2.3 0.948 4.716 0.948 7.211 0 8.517-3.829 16.136-9.855 21.243 0.779 2.053 1.224 4.271 1.224 6.597 0 10.297-8.348 18.645-18.645 18.645-10.296 0-18.644-8.348-18.644-18.645 0-2.06 0.348-4.037 0.965-5.89-6.525-5.095-10.726-13.03-10.726-21.95 0-2.495 0.333-4.911 0.949-7.211-4.391-5.715-7.007-12.865-7.007-20.629 0-17.023 12.548-31.112 28.898-33.53v-22.69h-22.043c-2.761 0-5-2.238-5-5s2.239-5 5-5h123.62c2.762 0 5 2.238 5 5s-2.238 5-5 5" fill="#fff"></path></g><g transform="translate(178 182.75)"><path d="m0 0c0 5.854-4.746 10.6-10.601 10.6-5.854 0-10.6-4.746-10.6-10.6s4.746-10.601 10.6-10.601c5.855 0 10.601 4.747 10.601 10.601" fill="#fff"></path></g><g transform="translate(165.18 168.66)"><path d="m0 0v-9.073c0-1.222 0.994-2.216 2.216-2.216s2.217 0.994 2.217 2.216v9.073c0 1.222-0.995 2.216-2.217 2.216s-2.216-0.994-2.216-2.216" fill="#fff"></path></g><g transform="translate(177.06 161.58)"><path d="m0 0c0.395-0.683 1.13-1.107 1.919-1.107 0.389 0 0.771 0.103 1.107 0.297 1.057 0.61 1.422 1.968 0.812 3.028l-4.536 7.858c-0.297 0.513-0.777 0.88-1.349 1.032-0.573 0.153-1.169 0.073-1.679-0.222-1.056-0.61-1.421-1.968-0.811-3.028z" fill="#fff"></path></g><g transform="translate(187.46 168.96)"><path d="m0 0c0.789 0 1.524 0.424 1.921 1.11 0.608 1.057 0.245 2.414-0.812 3.025l-7.856 4.536c-0.514 0.297-1.112 0.377-1.683 0.223-0.572-0.154-1.05-0.521-1.345-1.032-0.612-1.058-0.248-2.416 0.81-3.029l7.861-4.539c0.336-0.192 0.718-0.294 1.104-0.294" fill="#fff"></path></g><g transform="translate(179.27 182.75)"><path d="m0 0c0-1.222 0.994-2.216 2.217-2.216h9.072c1.222 0 2.216 0.994 2.216 2.216s-0.994 2.216-2.216 2.216h-9.072c-1.223 0-2.217-0.994-2.217-2.216" fill="#fff"></path></g><g transform="translate(177.68 188.68)"><path d="m0 0c0.395-0.683 1.13-1.106 1.919-1.106 0.388 0 0.77 0.103 1.107 0.297l7.859 4.537c1.055 0.61 1.419 1.967 0.81 3.024-0.295 0.514-0.772 0.881-1.344 1.035-0.572 0.153-1.17 0.075-1.684-0.222l-7.858-4.537c-1.058-0.611-1.421-1.97-0.809-3.028" fill="#fff"></path></g><g transform="translate(173.33 193.03)"><path d="m0 0c0.337-0.196 0.722-0.3 1.112-0.3 0.79 0 1.526 0.425 1.92 1.108l4.537 7.859c0.61 1.058 0.244 2.416-0.812 3.026-1.058 0.61-2.416 0.245-3.028-0.812l-4.537-7.859c-0.609-1.058-0.244-2.415 0.808-3.022" fill="#fff"></path></g><g transform="translate(167.4 194.62)"><path d="m0 0c1.223 0 2.217 0.994 2.217 2.216v9.073c0 1.222-0.994 2.216-2.217 2.216-1.222 0-2.216-0.994-2.216-2.216v-9.073c0-1.222 0.994-2.216 2.216-2.216" fill="#fff"></path></g><g transform="translate(158.44 193.84)"><path d="m0 0c0.395-0.684 1.13-1.108 1.92-1.108 0.388 0 0.77 0.103 1.107 0.296 0.513 0.296 0.88 0.774 1.033 1.347 0.153 0.572 0.074 1.17-0.222 1.681l-4.535 7.855c-0.295 0.513-0.773 0.881-1.345 1.034-0.571 0.154-1.169 0.076-1.684-0.22-0.512-0.296-0.879-0.774-1.032-1.346-0.153-0.573-0.074-1.17 0.222-1.682z" fill="#fff"></path></g><g transform="translate(146.24 192.41)"><path d="m0 0 7.853-4.533c0.336-0.196 0.721-0.3 1.112-0.3 0.791 0 1.527 0.425 1.919 1.106 0.296 0.513 0.375 1.111 0.221 1.683-0.152 0.572-0.519 1.05-1.032 1.346l-7.856 4.536c-0.514 0.297-1.11 0.376-1.683 0.222-0.572-0.154-1.051-0.521-1.345-1.032-0.295-0.512-0.375-1.11-0.221-1.682 0.152-0.573 0.519-1.051 1.032-1.346" fill="#fff"></path></g><g transform="translate(144.24 180.53)"><path d="m0 0h9.072c1.222 0 2.216 0.994 2.216 2.216s-0.994 2.216-2.216 2.216h-9.072c-1.223 0-2.217-0.994-2.217-2.216s0.994-2.216 2.217-2.216" fill="#fff"></path></g><g transform="translate(157.34 175.13)"><path d="m0 0c0.153 0.572 0.074 1.17-0.221 1.681-0.296 0.513-0.774 0.881-1.347 1.034-0.577 0.153-1.171 0.074-1.68-0.222l-7.857-4.536c-0.513-0.296-0.88-0.774-1.033-1.347-0.153-0.572-0.074-1.17 0.22-1.678 0.394-0.685 1.13-1.111 1.921-1.111 0.389 0 0.772 0.102 1.107 0.297l7.858 4.536c0.512 0.296 0.88 0.774 1.032 1.346" fill="#fff"></path></g><g transform="translate(154.72 160.77)"><path d="m0 0c0.337-0.193 0.718-0.295 1.104-0.295 0.789 0 1.524 0.424 1.919 1.108l4.537 7.856c0.295 0.513 0.375 1.111 0.221 1.683-0.152 0.572-0.519 1.05-1.031 1.345-0.514 0.297-1.113 0.376-1.684 0.222-0.572-0.153-1.05-0.521-1.344-1.032l-4.536-7.856c-0.296-0.513-0.375-1.111-0.222-1.683 0.152-0.572 0.519-1.05 1.036-1.348" fill="#fff"></path></g></g></g></g></svg> 