<?xml version="1.0" encoding="UTF-8"?> <svg xmlns="http://www.w3.org/2000/svg" xmlns:cc="http://creativecommons.org/ns#" xmlns:dc="http://purl.org/dc/elements/1.1/" xmlns:rdf="http://www.w3.org/1999/02/22-rdf-syntax-ns#" width="91.778mm" height="91.63mm" version="1.1" viewBox="0 0 91.778 91.63"><defs><clipPath id="clipPath20682"><path d="M 0,260.159 H 260.159 V 0 H 0 Z"></path></clipPath></defs><metadata></metadata><g transform="translate(-30.462 -120.49)"><g transform="matrix(.35278 0 0 -.35278 30.462 212.12)"><g clip-path="url(#clipPath20682)"><g transform="translate(174.5 159.05)"><path d="m0 0c-3.784-4.671-5.796-10.383-5.796-16.311v-15.666c0-0.581-0.475-1.055-1.056-1.055-0.585 0-1.055 0.474-1.055 1.055v15.651c-5e-3 0.095-5e-3 0.195-5e-3 0.29v0.095c-0.079 5.616-1.969 11.243-5.776 15.941-0.369 0.454-0.294 1.119 0.16 1.489 0.448 0.364 1.113 0.295 1.482-0.158 2.466-3.046 4.192-6.451 5.194-10.003 1.025 3.605 2.783 6.999 5.216 10.003 0.364 0.453 1.03 0.522 1.483 0.158 0.454-0.37 0.522-1.035 0.153-1.489" fill="#fff"></path></g><g transform="translate(174.5 159.05)"><path d="m0 0c-3.784-4.671-5.796-10.383-5.796-16.311v-15.666c0-0.581-0.475-1.055-1.056-1.055-0.585 0-1.055 0.474-1.055 1.055v15.651c-5e-3 0.095-5e-3 0.195-5e-3 0.29v0.095c-0.079 5.616-1.969 11.243-5.776 15.941-0.369 0.454-0.294 1.119 0.16 1.489 0.448 0.364 1.113 0.295 1.482-0.158 2.466-3.046 4.192-6.451 5.194-10.003 1.025 3.605 2.783 6.999 5.216 10.003 0.364 0.453 1.03 0.522 1.483 0.158 0.454-0.37 0.522-1.035 0.153-1.489z" fill="none" stroke="#fff" stroke-miterlimit="10" stroke-width="4"></path></g><g transform="translate(84.366 56.611)"><path d="m0 0h21.945c4.588 0 9.072 1.338 12.897 3.871 8.533 5.65 17.625 15.487 23.745 15.487 10.326 0 10.19-6.77 10.19-19.358h26.843c12.938 0 16.24-0.608 25.926 33.336 4.625 16.204 2.022 26.334-1.301 31.971-1.705 2.892-5.297 4.208-8.42 2.975-16.971-6.7-47.328 2.146-67.293 15.624-2.153 1.452-4.947 1.471-7.113 0.039-11.609-7.674-31.25-23.204-62.219-25.776-5.14-0.427-8.903-5.071-8.363-10.2 2.731-25.939 16.016-47.969 33.163-47.969z" fill="none" stroke="#fff" stroke-linecap="round" stroke-linejoin="round" stroke-miterlimit="10" stroke-width="8"></path></g><g transform="translate(195.9 73.042)"><path d="m0 0h-18.128" fill="none" stroke="#fff" stroke-linecap="round" stroke-miterlimit="10" stroke-width="5"></path></g><g transform="translate(169.69 73.042)"><path d="m0 0c0-0.562-0.456-1.018-1.018-1.018s-1.018 0.456-1.018 1.018 0.456 1.018 1.018 1.018 1.018-0.456 1.018-1.018z" fill="none" stroke="#fff" stroke-linecap="round" stroke-miterlimit="10" stroke-width="5"></path></g><g transform="translate(206.95 206.12)"><path d="m0 0c-4.402-1.096-8.539-3.05-12.529-5.171-3.495-1.859-7.01-3.749-10.249-6.035-3.386-2.389-6.466-5.171-8.725-8.676-2.285-3.546-3.459-7.667-4.028-11.811-0.301-2.191-0.47-4.388-0.543-6.597-0.065-1.957-0.41-4.321 0.125-6.229 0.372-1.326 1.397-2.473 2.749-2.835 1.269-0.34 2.573-0.022 3.84 0.203 2.161 0.382 4.301 0.88 6.409 1.49 4.383 1.27 8.659 3.016 12.68 5.172 3.609 1.934 7.088 4.321 9.633 7.569 3.215 4.103 4.47 9.098 5.133 14.176 0.702 5.374 0.726 10.794 0.083 16.174-0.192 1.609-1.241 3-3 3-1.473 0-3.193-1.381-3-3 0.506-4.233 0.615-8.502 0.28-12.753-0.281-3.577-0.773-7.365-2.252-10.669-2.886-6.45-10.15-9.925-16.416-12.301-2.051-0.779-4.145-1.449-6.268-2.004-1.025-0.269-2.057-0.511-3.094-0.726-0.593-0.123-1.187-0.237-1.783-0.343-0.165-0.029-1.009-0.085-0.819-0.147 0.441-0.257 0.882-0.514 1.324-0.771 0.055-0.045 0.279-0.732 0.297-0.734 0.082-0.011-0.059-0.031 5e-3 0.211 0.117 0.444 7e-3 1.035 0.012 1.499 0.011 0.934 0.026 1.869 0.055 2.802 0.058 1.873 0.152 3.756 0.392 5.616 0.442 3.443 1.397 6.86 3.261 9.812 3.628 5.747 10.138 9.066 15.934 12.194 3.876 2.091 7.795 4.03 12.089 5.098 3.745 0.932 2.158 6.721-1.595 5.786" fill="#fff"></path></g><g transform="translate(126.76 199.52)"><path d="m0 0c3.777-0.94 7.267-2.545 10.697-4.355 3.164-1.67 6.333-3.376 9.324-5.345 2.686-1.767 5.304-3.845 7.227-6.449 2.113-2.86 3.23-6.19 3.836-9.665 0.348-1.993 0.479-4.022 0.561-6.042 0.041-1.007 0.063-2.014 0.078-3.021 7e-3 -0.572 0.014-1.144 0.016-1.717 1e-3 -0.173-0.038-0.411 1e-3 -0.58 0.065-0.282-0.053 0.39 0.305 0.675 0.441 0.257 0.883 0.515 1.324 0.772 0.235 0.077-0.262 0.05-0.372 0.069-0.447 0.08-0.894 0.157-1.341 0.242-1.04 0.2-2.075 0.427-3.103 0.681-1.911 0.47-3.799 1.032-5.657 1.682-3.532 1.238-6.964 2.818-10.167 4.761-2.826 1.713-5.422 3.826-7.059 6.746-1.742 3.109-2.403 6.789-2.775 10.296-0.511 4.813-0.453 9.662 0.121 14.465 0.193 1.612-1.516 3-3 3-1.781 0-2.807-1.383-3-3-0.574-4.803-0.632-9.653-0.121-14.465 0.474-4.464 1.265-8.938 3.389-12.947 4.082-7.708 13.165-11.891 21.018-14.641 2.071-0.726 4.181-1.341 6.317-1.842 1.032-0.242 2.069-0.457 3.112-0.646 1.246-0.225 2.634-0.619 3.894-0.298 2.847 0.727 3.133 3.435 3.107 5.887-0.021 2.086-0.066 4.172-0.22 6.252-0.329 4.437-1.126 8.781-3.011 12.838-1.677 3.608-4.376 6.714-7.454 9.202-3.563 2.879-7.519 5.136-11.534 7.313-4.434 2.403-9 4.694-13.918 5.918-3.747 0.932-5.346-4.852-1.595-5.786" fill="#fff"></path></g></g></g></g></svg> 