<?xml version="1.0" encoding="UTF-8"?> <svg xmlns="http://www.w3.org/2000/svg" xmlns:cc="http://creativecommons.org/ns#" xmlns:dc="http://purl.org/dc/elements/1.1/" xmlns:rdf="http://www.w3.org/1999/02/22-rdf-syntax-ns#" width="176.39mm" height="176.39mm" version="1.1" viewBox="0 0 176.39 176.39"><defs><clipPath id="clipPath29628"><path d="m0 500h500v-500h-500z"></path></clipPath></defs><metadata></metadata><g transform="translate(5.0397 -24.442)"><g transform="matrix(.35278 0 0 -.35278 -5.0397 200.83)"><g clip-path="url(#clipPath29628)"><g transform="translate(348.72 291.84)"><path d="m0 0h-15.46v-19.52c-6.08 2.78-12.5 4.92-19.21 6.32-6.07 1.28-12.36 1.96-18.82 1.96-50.5 0-91.43-40.93-91.43-91.43 0-6.46 0.68-12.75 1.95-18.83 2.61-12.47 7.78-24 14.91-34.041h-75.41c-6.98 0-12.64 5.661-12.64 12.641v142.9h-15.46c-3.47 0-5.13 4.28-2.57 6.63l109.97 100.54c4.75 4.34 12.03 4.34 16.78 0l109.96-100.54c2.571-2.35 0.91-6.63-2.569-6.63z" fill="none" stroke="#fff" stroke-linecap="round" stroke-linejoin="round" stroke-miterlimit="10" stroke-width="13"></path></g><g transform="translate(386.67 189.17)"><path d="m0 0c0-50.5-40.95-91.439-91.44-91.439-30.79 0-58.01 15.24-74.57 38.569-7.131 10.04-12.301 21.57-14.91 34.04-1.27 6.08-1.951 12.37-1.951 18.83 0 50.5 40.931 91.43 91.431 91.43 6.46 0 12.75-0.68 18.82-1.96 6.71-1.4 13.13-3.54 19.21-6.32 31.51-14.43 53.41-46.23 53.41-83.15z" fill="none" stroke="#fff" stroke-miterlimit="10" stroke-width="13"></path></g><g transform="translate(336.24 159.83)"><path d="m0 0c1.167-1.51 1.752-3.334 1.752-5.474 0-2.823-1.121-5.107-3.357-6.858-4.378-3.601-9.049-6.349-14.011-8.246-4.961-1.898-9.975-2.847-15.032-2.847-9.924 0-18.122 3.114-24.59 9.341-6.473 6.226-10.825 15.08-13.064 26.562h-9.485c-1.655 0-3.066 0.558-4.233 1.678-1.168 1.116-1.751 2.504-1.751 4.158s0.583 3.016 1.751 4.087c1.167 1.071 2.578 1.606 4.233 1.606h8.173c-0.098 1.167-0.147 2.967-0.147 5.4 0 2.431 0.049 4.232 0.147 5.401h-8.173c-1.655 0-3.066 0.557-4.233 1.677-1.168 1.117-1.751 2.455-1.751 4.014 0 1.653 0.583 3.039 1.751 4.159 1.167 1.116 2.578 1.678 4.233 1.678h9.485c2.239 11.384 6.616 20.187 13.136 26.416 6.517 6.226 14.689 9.34 24.518 9.34 4.961 0 9.972-0.948 15.032-2.847 5.057-1.896 9.728-4.646 14.011-8.245 1.167-0.974 2.017-1.97 2.553-2.992 0.534-1.021 0.804-2.312 0.804-3.867 0-2.141-0.585-3.965-1.752-5.473-1.167-1.51-2.628-2.263-4.378-2.263-0.975 0-1.875 0.17-2.7 0.512-0.828 0.34-1.875 0.949-3.138 1.824-3.795 2.918-7.224 5.01-10.289 6.276-3.065 1.262-6.202 1.896-9.413 1.896-5.451 0-9.804-1.678-13.062-5.034-3.26-3.357-5.523-8.537-6.786-15.543h18.681c1.75 0 3.185-0.562 4.304-1.678 1.118-1.12 1.679-2.506 1.679-4.159 0-1.656-0.561-3.018-1.679-4.087-1.119-1.072-2.554-1.604-4.304-1.604h-19.85c-0.097-1.169-0.145-2.97-0.145-5.401 0-2.433 0.048-4.233 0.145-5.4h19.85c1.75 0 3.185-0.535 4.304-1.606 1.118-1.071 1.679-2.433 1.679-4.087s-0.561-3.042-1.679-4.158c-1.119-1.12-2.554-1.678-4.304-1.678h-18.681c1.263-7.104 3.526-12.332 6.786-15.689 3.258-3.357 7.611-5.035 13.062-5.035 3.014 0 6.006 0.657 8.975 1.97 2.967 1.313 6.542 3.38 10.727 6.203 1.263 0.875 2.31 1.482 3.138 1.824 0.825 0.34 1.725 0.511 2.7 0.511 1.75 0 3.211-0.755 4.378-2.262" fill="#fff"></path></g></g></g></g></svg> 