<?xml version="1.0" encoding="UTF-8"?> <svg xmlns="http://www.w3.org/2000/svg" xmlns:cc="http://creativecommons.org/ns#" xmlns:dc="http://purl.org/dc/elements/1.1/" xmlns:rdf="http://www.w3.org/1999/02/22-rdf-syntax-ns#" width="91.664mm" height="91.63mm" version="1.1" viewBox="0 0 91.664 91.63"><defs><clipPath id="clipPath3393"><path d="M 0,260.159 H 260.159 V 0 H 0 Z"></path></clipPath></defs><metadata></metadata><g transform="translate(-49.418 -126.54)"><g transform="matrix(.35278 0 0 -.35278 49.418 218.17)"><g clip-path="url(#clipPath3393)"><g transform="translate(131.39 178.68)"><path d="m0 0c25.263 0 0 43.81 0 43.81s-25.262-43.81 0-43.81" fill="#fff"></path></g><g transform="translate(131.39 178.68)"><path d="m0 0c25.263 0 0 43.81 0 43.81s-25.262-43.81 0-43.81z" fill="none" stroke="#fff" stroke-miterlimit="10" stroke-width="4"></path></g><g transform="translate(71.413 171.06)"><path d="m0 0c1.329-0.328 2.644-0.704 3.942-1.137 0.721-0.24 1.435-0.497 2.145-0.766 0.285-0.108 0.568-0.218 0.85-0.33 0.07-0.028 1.289-0.527 0.613-0.242 2.67-1.126 5.263-2.44 7.824-3.792 4.637-2.45 9.285-4.951 13.654-7.86 0.999-0.665 1.972-1.366 2.942-2.072 1.03-0.751-0.405 0.341 0.193-0.145 0.256-0.208 0.517-0.411 0.773-0.621 0.509-0.418 1.01-0.847 1.502-1.286 0.879-0.787 1.728-1.608 2.535-2.47 0.447-0.477 0.881-0.966 1.302-1.467 0.168-0.2 0.329-0.407 0.497-0.607-0.613 0.732 0.188-0.258 0.248-0.341 0.706-0.977 1.355-1.995 1.94-3.05 0.341-0.615 0.66-1.243 0.957-1.879 0.12-0.254 0.234-0.51 0.347-0.767-0.361 0.822 0.157-0.425 0.178-0.48 0.943-2.496 1.594-5.096 2.045-7.724 0.048-0.279 0.094-0.559 0.138-0.839-9e-3 0.057 0.186-1.323 0.1-0.667-0.086 0.658 0.084-0.731 0.077-0.673 0.032-0.284 0.063-0.567 0.091-0.851 0.144-1.425 0.244-2.854 0.316-4.285 0.137-2.714 0.182-5.436 0.19-8.155 1e-3 -0.25-2e-3 -0.502 0-0.752-6e-3 -0.111-0.012-0.222-0.019-0.334-0.056 0.854 0.444 1.392 1.501 1.616 0.483 0.358 0.966 0.714 1.45 1.072-0.515 0.032-0.529 0.025-0.043-0.02-0.299 0.038-0.6 0.098-0.896 0.148-1.493 0.254-2.978 0.546-4.455 0.876-2.807 0.627-5.583 1.39-8.315 2.287-1.295 0.425-2.579 0.88-3.852 1.363-0.637 0.242-1.271 0.492-1.902 0.748-0.156 0.064-1.048 0.437-0.392 0.158-0.418 0.178-0.833 0.361-1.248 0.545-2.565 1.145-5.085 2.404-7.522 3.801-1.083 0.621-2.149 1.272-3.187 1.965-0.461 0.307-0.917 0.622-1.366 0.947 0.055-0.039-1.032 0.773-0.539 0.394 0.344-0.266-0.564 0.46-0.675 0.553-0.999 0.837-1.953 1.73-2.837 2.688-0.373 0.403-0.727 0.821-1.079 1.242-0.824 0.986 0.233-0.416-0.173 0.233-0.221 0.353-0.48 0.685-0.706 1.037-0.419 0.649-0.808 1.318-1.165 2.004-0.129 0.249-0.254 0.5-0.376 0.753-0.084 0.172-0.539 1.181-0.234 0.463-0.606 1.426-1.075 2.917-1.473 4.412-0.384 1.44-0.691 2.9-0.945 4.369-0.134 0.768-0.254 1.538-0.36 2.311 0.029-0.213 0.096-0.79-0.02 0.185-0.057 0.481-0.114 0.963-0.166 1.445-0.738 6.916-0.662 13.896 0.171 20.799 0.283 2.346-2.272 4.6-4.5 4.5-2.68-0.12-4.197-1.987-4.5-4.5-0.805-6.662-0.903-13.396-0.245-20.076 0.639-6.481 1.735-12.956 4.686-18.829 5.616-11.177 18.436-17.239 29.637-21.299 2.988-1.083 6.034-2.007 9.121-2.763 1.471-0.36 2.95-0.683 4.436-0.967 1.697-0.324 3.591-0.824 5.312-0.751 2.602 0.111 4.627 1.726 5.483 4.145 0.549 1.551 0.396 3.322 0.379 4.941-0.032 3.009-0.105 6.021-0.34 9.022-0.494 6.317-1.654 12.485-4.356 18.252-2.418 5.162-6.286 9.606-10.697 13.172-5.025 4.062-10.589 7.264-16.252 10.339-6.477 3.518-13.152 6.916-20.347 8.691-2.282 0.563-4.986-0.73-5.536-3.143-0.53-2.326 0.698-4.933 3.143-5.536" fill="#fff"></path></g><g transform="translate(188.95 179.74)"><path d="m0 0c-6.371-1.572-12.361-4.425-18.131-7.497-5.014-2.67-10.056-5.38-14.698-8.67-4.836-3.428-9.221-7.399-12.461-12.407-3.267-5.049-4.986-10.94-5.803-16.852-0.447-3.239-0.706-6.486-0.812-9.755-0.047-1.43-0.072-2.863-0.087-4.295-0.018-1.583-0.138-3.254 0.326-4.791 0.752-2.486 2.805-4.036 5.343-4.273 1.769-0.165 3.758 0.395 5.504 0.729 3.122 0.596 6.212 1.363 9.251 2.292 6.121 1.872 12.102 4.377 17.711 7.461 5.409 2.975 10.378 6.682 14.049 11.694 4.195 5.724 5.694 12.864 6.569 19.762 0.958 7.545 0.967 15.176 0.056 22.726-0.281 2.328-1.869 4.617-4.5 4.5-2.196-0.099-4.802-1.998-4.5-4.5 0.736-6.101 0.884-12.26 0.395-18.387-0.115-1.449-0.265-2.897-0.451-4.339 0.098 0.762-0.023-0.149-0.05-0.335-0.052-0.35-0.106-0.701-0.163-1.05-0.114-0.701-0.239-1.4-0.379-2.096-0.25-1.251-0.545-2.495-0.899-3.721-0.196-0.677-0.41-1.351-0.645-2.016-0.094-0.266-0.19-0.531-0.291-0.793-0.023-0.063-0.567-1.282-0.189-0.484-0.543-1.145-1.103-2.271-1.782-3.344-0.187-0.296-0.382-0.588-0.582-0.876-0.114-0.165-0.649-0.894-0.155-0.25-0.417-0.543-0.871-1.06-1.335-1.562-0.838-0.908-1.737-1.758-2.68-2.556-0.262-0.223-0.534-0.435-0.798-0.656-0.603-0.505 0.833 0.586-0.239-0.179-0.563-0.402-1.124-0.808-1.7-1.192-2.243-1.496-4.609-2.805-7.017-4.015-2.811-1.414-4.66-2.223-7.234-3.202-5.376-2.043-10.951-3.563-16.622-4.526-0.298-0.051-0.597-0.107-0.897-0.148l0.355 0.039c-0.971 0.037-0.62-0.327 1.053-1.09 0.482-0.357 0.966-0.714 1.449-1.071 0.055-0.657 0.065-0.727 0.032-0.212 0.01 0.249-1e-3 0.506 0 0.752 7e-3 1.428 0.024 2.857 0.055 4.284 0.059 2.722 0.179 5.446 0.451 8.156 0.058 0.568 0.122 1.134 0.192 1.7-0.107-0.86 0.013 0.068 0.045 0.281 0.053 0.35 0.11 0.7 0.169 1.049 0.239 1.388 0.532 2.767 0.895 4.128 0.325 1.216 0.706 2.419 1.15 3.597 0.1 0.261 0.203 0.521 0.307 0.781-0.284-0.713-0.019-0.046 0.042 0.083 0.362 0.763 0.724 1.522 1.134 2.261 0.585 1.055 1.233 2.073 1.939 3.051 0.154 0.212 0.31 0.424 0.469 0.631-0.502-0.654-0.079-0.108 0.026 0.015 0.472 0.544 0.929 1.096 1.419 1.625 0.848 0.913 1.74 1.783 2.669 2.613 0.393 0.352 0.792 0.696 1.196 1.034 0.254 0.211 0.51 0.42 0.768 0.626 0.154 0.125 0.31 0.248 0.467 0.371-0.334-0.258-0.375-0.291-0.122-0.099 4.686 3.381 9.655 6.228 14.735 8.972 2.82 1.523 5.664 3.009 8.589 4.322 0.348 0.156 0.695 0.309 1.045 0.46 0.288 0.123 0.28 0.12-0.024-0.01 0.211 0.087 0.422 0.173 0.634 0.257 0.777 0.311 1.558 0.608 2.346 0.885 1.578 0.556 3.18 1.032 4.804 1.433 2.286 0.564 3.877 3.266 3.142 5.536-0.766 2.372-3.085 3.747-5.535 3.143" fill="#fff"></path></g><g transform="translate(144.4 115.48)"><path d="m0 0c-7.17-8.851-10.98-19.67-10.98-30.9v-29.679c0-1.101-0.901-2-2-2-1.11 0-2 0.899-2 2v29.648c-0.01 0.181-0.01 0.37-0.01 0.551v0.18c-0.151 10.639-3.73 21.3-10.941 30.2-0.699 0.859-0.559 2.12 0.301 2.819 0.85 0.691 2.109 0.561 2.81-0.299 4.67-5.77 7.94-12.22 9.84-18.951 1.94 6.83 5.27 13.261 9.879 18.951 0.691 0.86 1.951 0.99 2.811 0.299 0.859-0.699 0.989-1.96 0.29-2.819" fill="#fff"></path></g><g transform="translate(144.4 115.48)"><path d="m0 0c-7.17-8.851-10.98-19.67-10.98-30.9v-29.679c0-1.101-0.901-2-2-2-1.11 0-2 0.899-2 2v29.648c-0.01 0.181-0.01 0.37-0.01 0.551v0.18c-0.151 10.639-3.73 21.3-10.941 30.2-0.699 0.859-0.559 2.12 0.301 2.819 0.85 0.691 2.109 0.561 2.81-0.299 4.67-5.77 7.94-12.22 9.84-18.951 1.94 6.83 5.27 13.261 9.879 18.951 0.691 0.86 1.951 0.99 2.811 0.299 0.859-0.699 0.989-1.96 0.29-2.819z" fill="none" stroke="#fff" stroke-miterlimit="10" stroke-width="4"></path></g><g transform="translate(85.84 52.906)"><path d="m0 0h91.16" fill="none" stroke="#fff" stroke-linecap="round" stroke-linejoin="round" stroke-miterlimit="10" stroke-width="9"></path></g></g></g></g></svg> 