<?xml version="1.0" encoding="UTF-8"?> <svg xmlns="http://www.w3.org/2000/svg" xmlns:cc="http://creativecommons.org/ns#" xmlns:dc="http://purl.org/dc/elements/1.1/" xmlns:rdf="http://www.w3.org/1999/02/22-rdf-syntax-ns#" width="91.778mm" height="91.778mm" version="1.1" viewBox="0 0 91.778 91.778"><defs><clipPath id="clipPath13636"><path d="M 0,260.159 H 260.159 V 0 H 0 Z"></path></clipPath></defs><metadata></metadata><g transform="translate(-53.897 -115.88)"><g transform="matrix(.35278 0 0 -.35278 53.897 207.66)"><g clip-path="url(#clipPath13636)"><g transform="translate(179.63 154.98)"><path d="m0 0-10.844 6.261 9.565 2.562c1.422 0.381 2.265 1.842 1.884 3.264-0.38 1.422-1.843 2.27-3.264 1.885l-14.713-3.942-8.264 4.77 1.574 0.422c1.422 0.381 2.266 1.842 1.885 3.265-0.38 1.422-1.844 2.269-3.264 1.884l-6.723-1.801-5.384 3.108c0.167 0.702 0.279 1.424 0.279 2.176 0 0.753-0.112 1.475-0.279 2.176l5.385 3.109 6.722-1.801c0.23-0.062 0.463-0.092 0.691-0.092 1.177 0 2.255 0.786 2.573 1.977 0.381 1.422-0.463 2.883-1.885 3.264l-1.573 0.422 8.264 4.77 14.712-3.942c0.23-0.063 0.463-0.092 0.691-0.092 1.177 0 2.255 0.785 2.573 1.977 0.381 1.422-0.462 2.883-1.884 3.264l-9.564 2.563 10.843 6.26c1.275 0.736 1.712 2.366 0.976 3.641-0.736 1.274-2.365 1.713-3.641 0.975l-10.844-6.261 2.563 9.564c0.381 1.423-0.462 2.884-1.885 3.265-1.42 0.382-2.884-0.462-3.264-1.885l-3.943-14.713-8.263-4.77 0.422 1.574c0.381 1.422-0.462 2.883-1.885 3.264-1.42 0.385-2.883-0.463-3.263-1.885l-1.802-6.723-5.382-3.107c-1.054 0.998-2.344 1.728-3.77 2.154v6.239l4.919 4.92c1.041 1.04 1.041 2.729 0 3.769-1.042 1.042-2.728 1.042-3.769 0l-1.15-1.15v9.541l10.769 10.77c1.041 1.04 1.041 2.729 0 3.769-1.041 1.042-2.727 1.042-3.769 0l-7-7.001v12.521c0 1.472-1.194 2.665-2.666 2.665-1.473 0-2.666-1.193-2.666-2.665v-12.521l-7.001 7.001c-1.041 1.042-2.728 1.042-3.769 0-1.042-1.04-1.042-2.729 0-3.769l10.77-10.77v-84.592c0-1.472 1.193-2.666 2.666-2.666 1.472 0 2.666 1.194 2.666 2.666v12.52l7-7.001c0.52-0.52 1.203-0.78 1.884-0.78 0.683 0 1.365 0.26 1.885 0.78 1.041 1.041 1.041 2.729 0 3.77l-10.769 10.77v9.541l1.15-1.151c0.519-0.52 1.202-0.781 1.885-0.781 0.681 0 1.363 0.261 1.884 0.781 1.041 1.041 1.041 2.728 0 3.77l-4.919 4.92v6.239c1.426 0.426 2.716 1.155 3.769 2.154l5.383-3.108 1.802-6.722c0.318-1.191 1.395-1.976 2.572-1.976 0.228 0 0.461 0.029 0.691 0.092 1.423 0.381 2.266 1.842 1.885 3.264l-0.421 1.573 8.262-4.77 3.943-14.714c0.319-1.191 1.396-1.976 2.573-1.976 0.228 0 0.46 0.029 0.691 0.092 1.423 0.381 2.266 1.842 1.885 3.264l-2.563 9.564 10.844-6.261c0.42-0.242 0.878-0.358 1.33-0.358 0.922 0 1.816 0.479 2.311 1.334 0.736 1.274 0.299 2.905-0.976 3.641" fill="#fff"></path></g><g transform="translate(111.07 34.329)"><path d="m0 0c-13.18 0-23.88 10.7-23.88 23.89 0 10.5 6.77 19.421 16.19 22.6v117.95c0 4.23 3.46 7.69 7.69 7.69s7.7-3.46 7.7-7.69v-117.97c9.42-3.18 16.19-12.08 16.19-22.58 0-13.19-10.68-23.89-23.89-23.89m15.7 51.63v112.81c0 1.06-0.11 2.1-0.32 3.1-1.44 7.17-7.79 12.59-15.38 12.59-4.54 0-8.63-1.96-11.5-5.05-1.75-1.9-3.04-4.23-3.69-6.81-0.1-0.38-0.19-0.77-0.25-1.17-0.15-0.87-0.25-1.75-0.25-2.66v-112.8c-9.88-5.56-16.19-16.1-16.19-27.75 0-17.579 14.31-31.89 31.88-31.89 17.58 0 31.88 14.311 31.88 31.89 0 11.65-6.299 22.171-16.18 27.74" fill="#fff"></path></g><g transform="translate(125.69 57.639)"><path d="m0 0c0-8.07-6.55-14.61-14.62-14.61s-14.61 6.54-14.61 14.61c0 7.06 5 12.939 11.65 14.31v18.469c0 1.63 1.33 2.96 2.96 2.96 1.64 0 2.97-1.33 2.97-2.96v-18.469c6.65-1.371 11.65-7.25 11.65-14.31" fill="#fff"></path></g></g></g></g></svg> 